G04 #@! TF.FileFunction,Soldermask,Top*
%FSLAX46Y46*%
G04 Gerber Fmt 4.6, Leading zero omitted, Abs format (unit mm)*
G04 Created by KiCad (PCBNEW 4.0.5) date 03/11/17 10:37:55*
%MOMM*%
%LPD*%
G01*
G04 APERTURE LIST*
%ADD10C,0.100000*%
%ADD11C,0.150000*%
%ADD12R,1.300000X0.900000*%
%ADD13R,0.900000X1.300000*%
%ADD14C,2.150000*%
%ADD15O,1.900000X1.000000*%
%ADD16R,1.900000X1.000000*%
%ADD17R,1.150000X0.680000*%
%ADD18R,1.700000X2.700000*%
%ADD19R,1.800000X0.800000*%
%ADD20R,2.300000X1.600000*%
%ADD21C,2.000000*%
%ADD22R,1.800000X2.000000*%
G04 APERTURE END LIST*
D10*
D11*
X160051667Y-119800714D02*
X160051667Y-120610238D01*
X160004048Y-120705476D01*
X159956429Y-120753095D01*
X159861190Y-120800714D01*
X159718333Y-120800714D01*
X159623095Y-120753095D01*
X160051667Y-120419762D02*
X159956429Y-120467381D01*
X159765952Y-120467381D01*
X159670714Y-120419762D01*
X159623095Y-120372143D01*
X159575476Y-120276905D01*
X159575476Y-119991190D01*
X159623095Y-119895952D01*
X159670714Y-119848333D01*
X159765952Y-119800714D01*
X159956429Y-119800714D01*
X160051667Y-119848333D01*
X160527857Y-120467381D02*
X160527857Y-119800714D01*
X160527857Y-119467381D02*
X160480238Y-119515000D01*
X160527857Y-119562619D01*
X160575476Y-119515000D01*
X160527857Y-119467381D01*
X160527857Y-119562619D01*
X160861190Y-119800714D02*
X161242142Y-119800714D01*
X161004047Y-119467381D02*
X161004047Y-120324524D01*
X161051666Y-120419762D01*
X161146904Y-120467381D01*
X161242142Y-120467381D01*
X161575476Y-120467381D02*
X161575476Y-119467381D01*
X162004048Y-120467381D02*
X162004048Y-119943571D01*
X161956429Y-119848333D01*
X161861191Y-119800714D01*
X161718333Y-119800714D01*
X161623095Y-119848333D01*
X161575476Y-119895952D01*
X162908810Y-119800714D02*
X162908810Y-120467381D01*
X162480238Y-119800714D02*
X162480238Y-120324524D01*
X162527857Y-120419762D01*
X162623095Y-120467381D01*
X162765953Y-120467381D01*
X162861191Y-120419762D01*
X162908810Y-120372143D01*
X163385000Y-120467381D02*
X163385000Y-119467381D01*
X163385000Y-119848333D02*
X163480238Y-119800714D01*
X163670715Y-119800714D01*
X163765953Y-119848333D01*
X163813572Y-119895952D01*
X163861191Y-119991190D01*
X163861191Y-120276905D01*
X163813572Y-120372143D01*
X163765953Y-120419762D01*
X163670715Y-120467381D01*
X163480238Y-120467381D01*
X163385000Y-120419762D01*
X164289762Y-120372143D02*
X164337381Y-120419762D01*
X164289762Y-120467381D01*
X164242143Y-120419762D01*
X164289762Y-120372143D01*
X164289762Y-120467381D01*
X165194524Y-120419762D02*
X165099286Y-120467381D01*
X164908809Y-120467381D01*
X164813571Y-120419762D01*
X164765952Y-120372143D01*
X164718333Y-120276905D01*
X164718333Y-119991190D01*
X164765952Y-119895952D01*
X164813571Y-119848333D01*
X164908809Y-119800714D01*
X165099286Y-119800714D01*
X165194524Y-119848333D01*
X165765952Y-120467381D02*
X165670714Y-120419762D01*
X165623095Y-120372143D01*
X165575476Y-120276905D01*
X165575476Y-119991190D01*
X165623095Y-119895952D01*
X165670714Y-119848333D01*
X165765952Y-119800714D01*
X165908810Y-119800714D01*
X166004048Y-119848333D01*
X166051667Y-119895952D01*
X166099286Y-119991190D01*
X166099286Y-120276905D01*
X166051667Y-120372143D01*
X166004048Y-120419762D01*
X165908810Y-120467381D01*
X165765952Y-120467381D01*
X166527857Y-120467381D02*
X166527857Y-119800714D01*
X166527857Y-119895952D02*
X166575476Y-119848333D01*
X166670714Y-119800714D01*
X166813572Y-119800714D01*
X166908810Y-119848333D01*
X166956429Y-119943571D01*
X166956429Y-120467381D01*
X166956429Y-119943571D02*
X167004048Y-119848333D01*
X167099286Y-119800714D01*
X167242143Y-119800714D01*
X167337381Y-119848333D01*
X167385000Y-119943571D01*
X167385000Y-120467381D01*
X168575476Y-119419762D02*
X167718333Y-120705476D01*
X168908809Y-119800714D02*
X168908809Y-120467381D01*
X168908809Y-119895952D02*
X168956428Y-119848333D01*
X169051666Y-119800714D01*
X169194524Y-119800714D01*
X169289762Y-119848333D01*
X169337381Y-119943571D01*
X169337381Y-120467381D01*
X169956428Y-120467381D02*
X169861190Y-120419762D01*
X169813571Y-120372143D01*
X169765952Y-120276905D01*
X169765952Y-119991190D01*
X169813571Y-119895952D01*
X169861190Y-119848333D01*
X169956428Y-119800714D01*
X170099286Y-119800714D01*
X170194524Y-119848333D01*
X170242143Y-119895952D01*
X170289762Y-119991190D01*
X170289762Y-120276905D01*
X170242143Y-120372143D01*
X170194524Y-120419762D01*
X170099286Y-120467381D01*
X169956428Y-120467381D01*
X171146905Y-120467381D02*
X171146905Y-119943571D01*
X171099286Y-119848333D01*
X171004048Y-119800714D01*
X170813571Y-119800714D01*
X170718333Y-119848333D01*
X171146905Y-120419762D02*
X171051667Y-120467381D01*
X170813571Y-120467381D01*
X170718333Y-120419762D01*
X170670714Y-120324524D01*
X170670714Y-120229286D01*
X170718333Y-120134048D01*
X170813571Y-120086429D01*
X171051667Y-120086429D01*
X171146905Y-120038810D01*
X171623095Y-120467381D02*
X171623095Y-119467381D01*
X172051667Y-120467381D02*
X172051667Y-119943571D01*
X172004048Y-119848333D01*
X171908810Y-119800714D01*
X171765952Y-119800714D01*
X171670714Y-119848333D01*
X171623095Y-119895952D01*
X172527857Y-119800714D02*
X172527857Y-120800714D01*
X172527857Y-119848333D02*
X172623095Y-119800714D01*
X172813572Y-119800714D01*
X172908810Y-119848333D01*
X172956429Y-119895952D01*
X173004048Y-119991190D01*
X173004048Y-120276905D01*
X172956429Y-120372143D01*
X172908810Y-120419762D01*
X172813572Y-120467381D01*
X172623095Y-120467381D01*
X172527857Y-120419762D01*
X174146905Y-119419762D02*
X173289762Y-120705476D01*
X174480238Y-119800714D02*
X174480238Y-120800714D01*
X174480238Y-119848333D02*
X174575476Y-119800714D01*
X174765953Y-119800714D01*
X174861191Y-119848333D01*
X174908810Y-119895952D01*
X174956429Y-119991190D01*
X174956429Y-120276905D01*
X174908810Y-120372143D01*
X174861191Y-120419762D01*
X174765953Y-120467381D01*
X174575476Y-120467381D01*
X174480238Y-120419762D01*
X175337381Y-120419762D02*
X175432619Y-120467381D01*
X175623095Y-120467381D01*
X175718334Y-120419762D01*
X175765953Y-120324524D01*
X175765953Y-120276905D01*
X175718334Y-120181667D01*
X175623095Y-120134048D01*
X175480238Y-120134048D01*
X175385000Y-120086429D01*
X175337381Y-119991190D01*
X175337381Y-119943571D01*
X175385000Y-119848333D01*
X175480238Y-119800714D01*
X175623095Y-119800714D01*
X175718334Y-119848333D01*
X176575477Y-120419762D02*
X176480239Y-120467381D01*
X176289762Y-120467381D01*
X176194524Y-120419762D01*
X176146905Y-120324524D01*
X176146905Y-119943571D01*
X176194524Y-119848333D01*
X176289762Y-119800714D01*
X176480239Y-119800714D01*
X176575477Y-119848333D01*
X176623096Y-119943571D01*
X176623096Y-120038810D01*
X176146905Y-120134048D01*
X177051667Y-119800714D02*
X177051667Y-120467381D01*
X177051667Y-119895952D02*
X177099286Y-119848333D01*
X177194524Y-119800714D01*
X177337382Y-119800714D01*
X177432620Y-119848333D01*
X177480239Y-119943571D01*
X177480239Y-120467381D01*
X177908810Y-120419762D02*
X178004048Y-120467381D01*
X178194524Y-120467381D01*
X178289763Y-120419762D01*
X178337382Y-120324524D01*
X178337382Y-120276905D01*
X178289763Y-120181667D01*
X178194524Y-120134048D01*
X178051667Y-120134048D01*
X177956429Y-120086429D01*
X177908810Y-119991190D01*
X177908810Y-119943571D01*
X177956429Y-119848333D01*
X178051667Y-119800714D01*
X178194524Y-119800714D01*
X178289763Y-119848333D01*
X179146906Y-120419762D02*
X179051668Y-120467381D01*
X178861191Y-120467381D01*
X178765953Y-120419762D01*
X178718334Y-120324524D01*
X178718334Y-119943571D01*
X178765953Y-119848333D01*
X178861191Y-119800714D01*
X179051668Y-119800714D01*
X179146906Y-119848333D01*
X179194525Y-119943571D01*
X179194525Y-120038810D01*
X178718334Y-120134048D01*
X159623095Y-102655714D02*
X159623095Y-103655714D01*
X159623095Y-102703333D02*
X159718333Y-102655714D01*
X159908810Y-102655714D01*
X160004048Y-102703333D01*
X160051667Y-102750952D01*
X160099286Y-102846190D01*
X160099286Y-103131905D01*
X160051667Y-103227143D01*
X160004048Y-103274762D01*
X159908810Y-103322381D01*
X159718333Y-103322381D01*
X159623095Y-103274762D01*
X160480238Y-103274762D02*
X160575476Y-103322381D01*
X160765952Y-103322381D01*
X160861191Y-103274762D01*
X160908810Y-103179524D01*
X160908810Y-103131905D01*
X160861191Y-103036667D01*
X160765952Y-102989048D01*
X160623095Y-102989048D01*
X160527857Y-102941429D01*
X160480238Y-102846190D01*
X160480238Y-102798571D01*
X160527857Y-102703333D01*
X160623095Y-102655714D01*
X160765952Y-102655714D01*
X160861191Y-102703333D01*
X161718334Y-103274762D02*
X161623096Y-103322381D01*
X161432619Y-103322381D01*
X161337381Y-103274762D01*
X161289762Y-103179524D01*
X161289762Y-102798571D01*
X161337381Y-102703333D01*
X161432619Y-102655714D01*
X161623096Y-102655714D01*
X161718334Y-102703333D01*
X161765953Y-102798571D01*
X161765953Y-102893810D01*
X161289762Y-102989048D01*
X162194524Y-102655714D02*
X162194524Y-103322381D01*
X162194524Y-102750952D02*
X162242143Y-102703333D01*
X162337381Y-102655714D01*
X162480239Y-102655714D01*
X162575477Y-102703333D01*
X162623096Y-102798571D01*
X162623096Y-103322381D01*
X163051667Y-103274762D02*
X163146905Y-103322381D01*
X163337381Y-103322381D01*
X163432620Y-103274762D01*
X163480239Y-103179524D01*
X163480239Y-103131905D01*
X163432620Y-103036667D01*
X163337381Y-102989048D01*
X163194524Y-102989048D01*
X163099286Y-102941429D01*
X163051667Y-102846190D01*
X163051667Y-102798571D01*
X163099286Y-102703333D01*
X163194524Y-102655714D01*
X163337381Y-102655714D01*
X163432620Y-102703333D01*
X164289763Y-103274762D02*
X164194525Y-103322381D01*
X164004048Y-103322381D01*
X163908810Y-103274762D01*
X163861191Y-103179524D01*
X163861191Y-102798571D01*
X163908810Y-102703333D01*
X164004048Y-102655714D01*
X164194525Y-102655714D01*
X164289763Y-102703333D01*
X164337382Y-102798571D01*
X164337382Y-102893810D01*
X163861191Y-102989048D01*
X165432620Y-102655714D02*
X165670715Y-103322381D01*
X165908811Y-102655714D01*
X166242144Y-102417619D02*
X166289763Y-102370000D01*
X166385001Y-102322381D01*
X166623097Y-102322381D01*
X166718335Y-102370000D01*
X166765954Y-102417619D01*
X166813573Y-102512857D01*
X166813573Y-102608095D01*
X166765954Y-102750952D01*
X166194525Y-103322381D01*
X166813573Y-103322381D01*
D12*
X180340000Y-115951000D03*
X180340000Y-117475000D03*
D13*
X171831000Y-117729000D03*
X173355000Y-117729000D03*
X166751000Y-117729000D03*
X168275000Y-117729000D03*
X188468000Y-115316000D03*
X186944000Y-115316000D03*
X188468000Y-118364000D03*
X186944000Y-118364000D03*
X188468000Y-105156000D03*
X186944000Y-105156000D03*
X188468000Y-108204000D03*
X186944000Y-108204000D03*
D12*
X175260000Y-113411000D03*
X175260000Y-114935000D03*
D13*
X171704000Y-106045000D03*
X170180000Y-106045000D03*
D12*
X177673000Y-115951000D03*
X177673000Y-117475000D03*
X177673000Y-107569000D03*
X177673000Y-106045000D03*
D14*
X194310000Y-118110000D03*
X190500000Y-114300000D03*
X190500000Y-119380000D03*
X190500000Y-116840000D03*
X194310000Y-115570000D03*
X194310000Y-107950000D03*
X190500000Y-104140000D03*
X190500000Y-109220000D03*
X190500000Y-106680000D03*
X194310000Y-105410000D03*
D15*
X172880000Y-115570000D03*
D16*
X172880000Y-114300000D03*
X172880000Y-113030000D03*
X172880000Y-111760000D03*
X172880000Y-109220000D03*
X172880000Y-107950000D03*
X167480000Y-107950000D03*
X167480000Y-109220000D03*
X167480000Y-110490000D03*
X167480000Y-111760000D03*
X167480000Y-113030000D03*
X167480000Y-114300000D03*
X167480000Y-115570000D03*
X172880000Y-110490000D03*
D13*
X167386000Y-106045000D03*
X168910000Y-106045000D03*
D10*
G36*
X181045000Y-112420000D02*
X181045000Y-113100000D01*
X179895000Y-113100000D01*
X179895000Y-112420000D01*
X181045000Y-112420000D01*
X181045000Y-112420000D01*
G37*
D17*
X180470000Y-112260000D03*
X180470000Y-111760000D03*
X180470000Y-111260000D03*
X180470000Y-110760000D03*
X177670000Y-110760000D03*
X177670000Y-111260000D03*
X177670000Y-111760000D03*
X177670000Y-112260000D03*
X177670000Y-112760000D03*
D18*
X179070000Y-111760000D03*
D19*
X162362000Y-110260000D03*
X162362000Y-111010000D03*
X162362000Y-111760000D03*
X162362000Y-112510000D03*
X162362000Y-113260000D03*
D20*
X159512000Y-110560000D03*
X159512000Y-112960000D03*
D21*
X159512000Y-107950000D03*
X159512000Y-115570000D03*
D22*
X162012000Y-108560000D03*
X162012000Y-114960000D03*
M02*
