G04 #@! TF.FileFunction,Legend,Top*
%FSLAX46Y46*%
G04 Gerber Fmt 4.6, Leading zero omitted, Abs format (unit mm)*
G04 Created by KiCad (PCBNEW 4.0.5) date 03/11/17 10:37:55*
%MOMM*%
%LPD*%
G01*
G04 APERTURE LIST*
%ADD10C,0.100000*%
%ADD11C,0.120000*%
%ADD12C,0.150000*%
G04 APERTURE END LIST*
D10*
D11*
X164800714Y-105114286D02*
X164800714Y-104364286D01*
X165122143Y-104435714D02*
X165157857Y-104400000D01*
X165229286Y-104364286D01*
X165407857Y-104364286D01*
X165479286Y-104400000D01*
X165515000Y-104435714D01*
X165550715Y-104507143D01*
X165550715Y-104578571D01*
X165515000Y-104685714D01*
X165086429Y-105114286D01*
X165550715Y-105114286D01*
X166300715Y-105042857D02*
X166265001Y-105078571D01*
X166157858Y-105114286D01*
X166086429Y-105114286D01*
X165979286Y-105078571D01*
X165907858Y-105007143D01*
X165872143Y-104935714D01*
X165836429Y-104792857D01*
X165836429Y-104685714D01*
X165872143Y-104542857D01*
X165907858Y-104471429D01*
X165979286Y-104400000D01*
X166086429Y-104364286D01*
X166157858Y-104364286D01*
X166265001Y-104400000D01*
X166300715Y-104435714D01*
X167157858Y-104900000D02*
X167515001Y-104900000D01*
X167086430Y-105114286D02*
X167336430Y-104364286D01*
X167586430Y-105114286D01*
X168265001Y-105042857D02*
X168229287Y-105078571D01*
X168122144Y-105114286D01*
X168050715Y-105114286D01*
X167943572Y-105078571D01*
X167872144Y-105007143D01*
X167836429Y-104935714D01*
X167800715Y-104792857D01*
X167800715Y-104685714D01*
X167836429Y-104542857D01*
X167872144Y-104471429D01*
X167943572Y-104400000D01*
X168050715Y-104364286D01*
X168122144Y-104364286D01*
X168229287Y-104400000D01*
X168265001Y-104435714D01*
X168479287Y-104364286D02*
X168907858Y-104364286D01*
X168693572Y-105114286D02*
X168693572Y-104364286D01*
X169157858Y-105114286D02*
X169157858Y-104364286D01*
X169407859Y-104364286D02*
X169657859Y-105114286D01*
X169907859Y-104364286D01*
X170157858Y-104721429D02*
X170407858Y-104721429D01*
X170515001Y-105114286D02*
X170157858Y-105114286D01*
X170157858Y-104364286D01*
X170515001Y-104364286D01*
X181038500Y-117983000D02*
X179641500Y-117983000D01*
X181038500Y-115443000D02*
X179641500Y-115443000D01*
X181038500Y-115443000D02*
X181038500Y-117983000D01*
X179641500Y-117983000D02*
X179641500Y-115443000D01*
X173863000Y-117030500D02*
X173863000Y-118427500D01*
X171323000Y-117030500D02*
X171323000Y-118427500D01*
X171323000Y-117030500D02*
X173863000Y-117030500D01*
X173863000Y-118427500D02*
X171323000Y-118427500D01*
X168783000Y-117030500D02*
X168783000Y-118427500D01*
X166243000Y-117030500D02*
X166243000Y-118427500D01*
X166243000Y-117030500D02*
X168783000Y-117030500D01*
X168783000Y-118427500D02*
X166243000Y-118427500D01*
X186436000Y-116014500D02*
X186436000Y-114617500D01*
X188976000Y-116014500D02*
X188976000Y-114617500D01*
X188976000Y-116014500D02*
X186436000Y-116014500D01*
X186436000Y-114617500D02*
X188976000Y-114617500D01*
X186436000Y-119062500D02*
X186436000Y-117665500D01*
X188976000Y-119062500D02*
X188976000Y-117665500D01*
X188976000Y-119062500D02*
X186436000Y-119062500D01*
X186436000Y-117665500D02*
X188976000Y-117665500D01*
X186436000Y-105854500D02*
X186436000Y-104457500D01*
X188976000Y-105854500D02*
X188976000Y-104457500D01*
X188976000Y-105854500D02*
X186436000Y-105854500D01*
X186436000Y-104457500D02*
X188976000Y-104457500D01*
X186436000Y-108902500D02*
X186436000Y-107505500D01*
X188976000Y-108902500D02*
X188976000Y-107505500D01*
X188976000Y-108902500D02*
X186436000Y-108902500D01*
X186436000Y-107505500D02*
X188976000Y-107505500D01*
X175958500Y-115443000D02*
X174561500Y-115443000D01*
X175958500Y-112903000D02*
X174561500Y-112903000D01*
X175958500Y-112903000D02*
X175958500Y-115443000D01*
X174561500Y-115443000D02*
X174561500Y-112903000D01*
X169672000Y-106743500D02*
X169672000Y-105346500D01*
X172212000Y-106743500D02*
X172212000Y-105346500D01*
X172212000Y-106743500D02*
X169672000Y-106743500D01*
X169672000Y-105346500D02*
X172212000Y-105346500D01*
X178371500Y-117983000D02*
X176974500Y-117983000D01*
X178371500Y-115443000D02*
X176974500Y-115443000D01*
X178371500Y-115443000D02*
X178371500Y-117983000D01*
X176974500Y-117983000D02*
X176974500Y-115443000D01*
X176974500Y-105537000D02*
X178371500Y-105537000D01*
X176974500Y-108077000D02*
X178371500Y-108077000D01*
X176974500Y-108077000D02*
X176974500Y-105537000D01*
X178371500Y-105537000D02*
X178371500Y-108077000D01*
X167894000Y-106362500D02*
X167894000Y-105727500D01*
X168402000Y-105727500D02*
X167957500Y-106045000D01*
X167957500Y-106045000D02*
X168402000Y-106362500D01*
X168402000Y-106362500D02*
X168402000Y-105727500D01*
X169418000Y-105346500D02*
X169418000Y-106743500D01*
X166878000Y-105346500D02*
X166878000Y-106743500D01*
X166878000Y-106743500D02*
X169418000Y-106743500D01*
X169418000Y-105346500D02*
X166878000Y-105346500D01*
X180215000Y-114948857D02*
X180179286Y-114984571D01*
X180072143Y-115020286D01*
X180000714Y-115020286D01*
X179893571Y-114984571D01*
X179822143Y-114913143D01*
X179786428Y-114841714D01*
X179750714Y-114698857D01*
X179750714Y-114591714D01*
X179786428Y-114448857D01*
X179822143Y-114377429D01*
X179893571Y-114306000D01*
X180000714Y-114270286D01*
X180072143Y-114270286D01*
X180179286Y-114306000D01*
X180215000Y-114341714D01*
X180929286Y-115020286D02*
X180500714Y-115020286D01*
X180715000Y-115020286D02*
X180715000Y-114270286D01*
X180643571Y-114377429D01*
X180572143Y-114448857D01*
X180500714Y-114484571D01*
X174500000Y-117996857D02*
X174464286Y-118032571D01*
X174357143Y-118068286D01*
X174285714Y-118068286D01*
X174178571Y-118032571D01*
X174107143Y-117961143D01*
X174071428Y-117889714D01*
X174035714Y-117746857D01*
X174035714Y-117639714D01*
X174071428Y-117496857D01*
X174107143Y-117425429D01*
X174178571Y-117354000D01*
X174285714Y-117318286D01*
X174357143Y-117318286D01*
X174464286Y-117354000D01*
X174500000Y-117389714D01*
X174785714Y-117389714D02*
X174821428Y-117354000D01*
X174892857Y-117318286D01*
X175071428Y-117318286D01*
X175142857Y-117354000D01*
X175178571Y-117389714D01*
X175214286Y-117461143D01*
X175214286Y-117532571D01*
X175178571Y-117639714D01*
X174750000Y-118068286D01*
X175214286Y-118068286D01*
X169420000Y-117996857D02*
X169384286Y-118032571D01*
X169277143Y-118068286D01*
X169205714Y-118068286D01*
X169098571Y-118032571D01*
X169027143Y-117961143D01*
X168991428Y-117889714D01*
X168955714Y-117746857D01*
X168955714Y-117639714D01*
X168991428Y-117496857D01*
X169027143Y-117425429D01*
X169098571Y-117354000D01*
X169205714Y-117318286D01*
X169277143Y-117318286D01*
X169384286Y-117354000D01*
X169420000Y-117389714D01*
X169670000Y-117318286D02*
X170134286Y-117318286D01*
X169884286Y-117604000D01*
X169991428Y-117604000D01*
X170062857Y-117639714D01*
X170098571Y-117675429D01*
X170134286Y-117746857D01*
X170134286Y-117925429D01*
X170098571Y-117996857D01*
X170062857Y-118032571D01*
X169991428Y-118068286D01*
X169777143Y-118068286D01*
X169705714Y-118032571D01*
X169670000Y-117996857D01*
X185295000Y-115655286D02*
X185045000Y-115298143D01*
X184866428Y-115655286D02*
X184866428Y-114905286D01*
X185152143Y-114905286D01*
X185223571Y-114941000D01*
X185259286Y-114976714D01*
X185295000Y-115048143D01*
X185295000Y-115155286D01*
X185259286Y-115226714D01*
X185223571Y-115262429D01*
X185152143Y-115298143D01*
X184866428Y-115298143D01*
X186009286Y-115655286D02*
X185580714Y-115655286D01*
X185795000Y-115655286D02*
X185795000Y-114905286D01*
X185723571Y-115012429D01*
X185652143Y-115083857D01*
X185580714Y-115119571D01*
X185295000Y-118703286D02*
X185045000Y-118346143D01*
X184866428Y-118703286D02*
X184866428Y-117953286D01*
X185152143Y-117953286D01*
X185223571Y-117989000D01*
X185259286Y-118024714D01*
X185295000Y-118096143D01*
X185295000Y-118203286D01*
X185259286Y-118274714D01*
X185223571Y-118310429D01*
X185152143Y-118346143D01*
X184866428Y-118346143D01*
X185580714Y-118024714D02*
X185616428Y-117989000D01*
X185687857Y-117953286D01*
X185866428Y-117953286D01*
X185937857Y-117989000D01*
X185973571Y-118024714D01*
X186009286Y-118096143D01*
X186009286Y-118167571D01*
X185973571Y-118274714D01*
X185545000Y-118703286D01*
X186009286Y-118703286D01*
X185549000Y-105495286D02*
X185299000Y-105138143D01*
X185120428Y-105495286D02*
X185120428Y-104745286D01*
X185406143Y-104745286D01*
X185477571Y-104781000D01*
X185513286Y-104816714D01*
X185549000Y-104888143D01*
X185549000Y-104995286D01*
X185513286Y-105066714D01*
X185477571Y-105102429D01*
X185406143Y-105138143D01*
X185120428Y-105138143D01*
X185799000Y-104745286D02*
X186263286Y-104745286D01*
X186013286Y-105031000D01*
X186120428Y-105031000D01*
X186191857Y-105066714D01*
X186227571Y-105102429D01*
X186263286Y-105173857D01*
X186263286Y-105352429D01*
X186227571Y-105423857D01*
X186191857Y-105459571D01*
X186120428Y-105495286D01*
X185906143Y-105495286D01*
X185834714Y-105459571D01*
X185799000Y-105423857D01*
X185549000Y-108543286D02*
X185299000Y-108186143D01*
X185120428Y-108543286D02*
X185120428Y-107793286D01*
X185406143Y-107793286D01*
X185477571Y-107829000D01*
X185513286Y-107864714D01*
X185549000Y-107936143D01*
X185549000Y-108043286D01*
X185513286Y-108114714D01*
X185477571Y-108150429D01*
X185406143Y-108186143D01*
X185120428Y-108186143D01*
X186191857Y-108043286D02*
X186191857Y-108543286D01*
X186013286Y-107757571D02*
X185834714Y-108293286D01*
X186299000Y-108293286D01*
X175135000Y-112734286D02*
X174885000Y-112377143D01*
X174706428Y-112734286D02*
X174706428Y-111984286D01*
X174992143Y-111984286D01*
X175063571Y-112020000D01*
X175099286Y-112055714D01*
X175135000Y-112127143D01*
X175135000Y-112234286D01*
X175099286Y-112305714D01*
X175063571Y-112341429D01*
X174992143Y-112377143D01*
X174706428Y-112377143D01*
X175813571Y-111984286D02*
X175456428Y-111984286D01*
X175420714Y-112341429D01*
X175456428Y-112305714D01*
X175527857Y-112270000D01*
X175706428Y-112270000D01*
X175777857Y-112305714D01*
X175813571Y-112341429D01*
X175849286Y-112412857D01*
X175849286Y-112591429D01*
X175813571Y-112662857D01*
X175777857Y-112698571D01*
X175706428Y-112734286D01*
X175527857Y-112734286D01*
X175456428Y-112698571D01*
X175420714Y-112662857D01*
X173230000Y-106384286D02*
X172980000Y-106027143D01*
X172801428Y-106384286D02*
X172801428Y-105634286D01*
X173087143Y-105634286D01*
X173158571Y-105670000D01*
X173194286Y-105705714D01*
X173230000Y-105777143D01*
X173230000Y-105884286D01*
X173194286Y-105955714D01*
X173158571Y-105991429D01*
X173087143Y-106027143D01*
X172801428Y-106027143D01*
X173872857Y-105634286D02*
X173730000Y-105634286D01*
X173658571Y-105670000D01*
X173622857Y-105705714D01*
X173551428Y-105812857D01*
X173515714Y-105955714D01*
X173515714Y-106241429D01*
X173551428Y-106312857D01*
X173587143Y-106348571D01*
X173658571Y-106384286D01*
X173801428Y-106384286D01*
X173872857Y-106348571D01*
X173908571Y-106312857D01*
X173944286Y-106241429D01*
X173944286Y-106062857D01*
X173908571Y-105991429D01*
X173872857Y-105955714D01*
X173801428Y-105920000D01*
X173658571Y-105920000D01*
X173587143Y-105955714D01*
X173551428Y-105991429D01*
X173515714Y-106062857D01*
X177548000Y-119084286D02*
X177298000Y-118727143D01*
X177119428Y-119084286D02*
X177119428Y-118334286D01*
X177405143Y-118334286D01*
X177476571Y-118370000D01*
X177512286Y-118405714D01*
X177548000Y-118477143D01*
X177548000Y-118584286D01*
X177512286Y-118655714D01*
X177476571Y-118691429D01*
X177405143Y-118727143D01*
X177119428Y-118727143D01*
X177798000Y-118334286D02*
X178298000Y-118334286D01*
X177976571Y-119084286D01*
X177548000Y-105114286D02*
X177298000Y-104757143D01*
X177119428Y-105114286D02*
X177119428Y-104364286D01*
X177405143Y-104364286D01*
X177476571Y-104400000D01*
X177512286Y-104435714D01*
X177548000Y-104507143D01*
X177548000Y-104614286D01*
X177512286Y-104685714D01*
X177476571Y-104721429D01*
X177405143Y-104757143D01*
X177119428Y-104757143D01*
X177976571Y-104685714D02*
X177905143Y-104650000D01*
X177869428Y-104614286D01*
X177833714Y-104542857D01*
X177833714Y-104507143D01*
X177869428Y-104435714D01*
X177905143Y-104400000D01*
X177976571Y-104364286D01*
X178119428Y-104364286D01*
X178190857Y-104400000D01*
X178226571Y-104435714D01*
X178262286Y-104507143D01*
X178262286Y-104542857D01*
X178226571Y-104614286D01*
X178190857Y-104650000D01*
X178119428Y-104685714D01*
X177976571Y-104685714D01*
X177905143Y-104721429D01*
X177869428Y-104757143D01*
X177833714Y-104828571D01*
X177833714Y-104971429D01*
X177869428Y-105042857D01*
X177905143Y-105078571D01*
X177976571Y-105114286D01*
X178119428Y-105114286D01*
X178190857Y-105078571D01*
X178226571Y-105042857D01*
X178262286Y-104971429D01*
X178262286Y-104828571D01*
X178226571Y-104757143D01*
X178190857Y-104721429D01*
X178119428Y-104685714D01*
D12*
X191738571Y-120419762D02*
X191881428Y-120467381D01*
X192119524Y-120467381D01*
X192214762Y-120419762D01*
X192262381Y-120372143D01*
X192310000Y-120276905D01*
X192310000Y-120181667D01*
X192262381Y-120086429D01*
X192214762Y-120038810D01*
X192119524Y-119991190D01*
X191929047Y-119943571D01*
X191833809Y-119895952D01*
X191786190Y-119848333D01*
X191738571Y-119753095D01*
X191738571Y-119657857D01*
X191786190Y-119562619D01*
X191833809Y-119515000D01*
X191929047Y-119467381D01*
X192167143Y-119467381D01*
X192310000Y-119515000D01*
X193262381Y-120467381D02*
X192690952Y-120467381D01*
X192976666Y-120467381D02*
X192976666Y-119467381D01*
X192881428Y-119610238D01*
X192786190Y-119705476D01*
X192690952Y-119753095D01*
X193452857Y-120562619D02*
X194214762Y-120562619D01*
X194643333Y-119467381D02*
X194833810Y-119467381D01*
X194929048Y-119515000D01*
X195024286Y-119610238D01*
X195071905Y-119800714D01*
X195071905Y-120134048D01*
X195024286Y-120324524D01*
X194929048Y-120419762D01*
X194833810Y-120467381D01*
X194643333Y-120467381D01*
X194548095Y-120419762D01*
X194452857Y-120324524D01*
X194405238Y-120134048D01*
X194405238Y-119800714D01*
X194452857Y-119610238D01*
X194548095Y-119515000D01*
X194643333Y-119467381D01*
X195500476Y-119467381D02*
X195500476Y-120276905D01*
X195548095Y-120372143D01*
X195595714Y-120419762D01*
X195690952Y-120467381D01*
X195881429Y-120467381D01*
X195976667Y-120419762D01*
X196024286Y-120372143D01*
X196071905Y-120276905D01*
X196071905Y-119467381D01*
X196405238Y-119467381D02*
X196976667Y-119467381D01*
X196690952Y-120467381D02*
X196690952Y-119467381D01*
X182039047Y-114196762D02*
X182181904Y-114244381D01*
X182420000Y-114244381D01*
X182515238Y-114196762D01*
X182562857Y-114149143D01*
X182610476Y-114053905D01*
X182610476Y-113958667D01*
X182562857Y-113863429D01*
X182515238Y-113815810D01*
X182420000Y-113768190D01*
X182229523Y-113720571D01*
X182134285Y-113672952D01*
X182086666Y-113625333D01*
X182039047Y-113530095D01*
X182039047Y-113434857D01*
X182086666Y-113339619D01*
X182134285Y-113292000D01*
X182229523Y-113244381D01*
X182467619Y-113244381D01*
X182610476Y-113292000D01*
X183562857Y-114244381D02*
X182991428Y-114244381D01*
X183277142Y-114244381D02*
X183277142Y-113244381D01*
X183181904Y-113387238D01*
X183086666Y-113482476D01*
X182991428Y-113530095D01*
X183753333Y-114339619D02*
X184515238Y-114339619D01*
X184705714Y-114196762D02*
X184848571Y-114244381D01*
X185086667Y-114244381D01*
X185181905Y-114196762D01*
X185229524Y-114149143D01*
X185277143Y-114053905D01*
X185277143Y-113958667D01*
X185229524Y-113863429D01*
X185181905Y-113815810D01*
X185086667Y-113768190D01*
X184896190Y-113720571D01*
X184800952Y-113672952D01*
X184753333Y-113625333D01*
X184705714Y-113530095D01*
X184705714Y-113434857D01*
X184753333Y-113339619D01*
X184800952Y-113292000D01*
X184896190Y-113244381D01*
X185134286Y-113244381D01*
X185277143Y-113292000D01*
X185705714Y-113720571D02*
X186039048Y-113720571D01*
X186181905Y-114244381D02*
X185705714Y-114244381D01*
X185705714Y-113244381D01*
X186181905Y-113244381D01*
X187086667Y-114244381D02*
X186610476Y-114244381D01*
X186610476Y-113244381D01*
X187181905Y-114339619D02*
X187943810Y-114339619D01*
X188181905Y-114244381D02*
X188181905Y-113244381D01*
X188181905Y-113720571D02*
X188753334Y-113720571D01*
X188753334Y-114244381D02*
X188753334Y-113244381D01*
X182158095Y-120292762D02*
X182300952Y-120340381D01*
X182539048Y-120340381D01*
X182634286Y-120292762D01*
X182681905Y-120245143D01*
X182729524Y-120149905D01*
X182729524Y-120054667D01*
X182681905Y-119959429D01*
X182634286Y-119911810D01*
X182539048Y-119864190D01*
X182348571Y-119816571D01*
X182253333Y-119768952D01*
X182205714Y-119721333D01*
X182158095Y-119626095D01*
X182158095Y-119530857D01*
X182205714Y-119435619D01*
X182253333Y-119388000D01*
X182348571Y-119340381D01*
X182586667Y-119340381D01*
X182729524Y-119388000D01*
X183681905Y-120340381D02*
X183110476Y-120340381D01*
X183396190Y-120340381D02*
X183396190Y-119340381D01*
X183300952Y-119483238D01*
X183205714Y-119578476D01*
X183110476Y-119626095D01*
X183872381Y-120435619D02*
X184634286Y-120435619D01*
X184824762Y-120292762D02*
X184967619Y-120340381D01*
X185205715Y-120340381D01*
X185300953Y-120292762D01*
X185348572Y-120245143D01*
X185396191Y-120149905D01*
X185396191Y-120054667D01*
X185348572Y-119959429D01*
X185300953Y-119911810D01*
X185205715Y-119864190D01*
X185015238Y-119816571D01*
X184920000Y-119768952D01*
X184872381Y-119721333D01*
X184824762Y-119626095D01*
X184824762Y-119530857D01*
X184872381Y-119435619D01*
X184920000Y-119388000D01*
X185015238Y-119340381D01*
X185253334Y-119340381D01*
X185396191Y-119388000D01*
X185824762Y-119816571D02*
X186158096Y-119816571D01*
X186300953Y-120340381D02*
X185824762Y-120340381D01*
X185824762Y-119340381D01*
X186300953Y-119340381D01*
X187205715Y-120340381D02*
X186729524Y-120340381D01*
X186729524Y-119340381D01*
X187300953Y-120435619D02*
X188062858Y-120435619D01*
X188777144Y-120340381D02*
X188300953Y-120340381D01*
X188300953Y-119340381D01*
X182062857Y-117244762D02*
X182205714Y-117292381D01*
X182443810Y-117292381D01*
X182539048Y-117244762D01*
X182586667Y-117197143D01*
X182634286Y-117101905D01*
X182634286Y-117006667D01*
X182586667Y-116911429D01*
X182539048Y-116863810D01*
X182443810Y-116816190D01*
X182253333Y-116768571D01*
X182158095Y-116720952D01*
X182110476Y-116673333D01*
X182062857Y-116578095D01*
X182062857Y-116482857D01*
X182110476Y-116387619D01*
X182158095Y-116340000D01*
X182253333Y-116292381D01*
X182491429Y-116292381D01*
X182634286Y-116340000D01*
X183586667Y-117292381D02*
X183015238Y-117292381D01*
X183300952Y-117292381D02*
X183300952Y-116292381D01*
X183205714Y-116435238D01*
X183110476Y-116530476D01*
X183015238Y-116578095D01*
X183777143Y-117387619D02*
X184539048Y-117387619D01*
X184729524Y-117244762D02*
X184872381Y-117292381D01*
X185110477Y-117292381D01*
X185205715Y-117244762D01*
X185253334Y-117197143D01*
X185300953Y-117101905D01*
X185300953Y-117006667D01*
X185253334Y-116911429D01*
X185205715Y-116863810D01*
X185110477Y-116816190D01*
X184920000Y-116768571D01*
X184824762Y-116720952D01*
X184777143Y-116673333D01*
X184729524Y-116578095D01*
X184729524Y-116482857D01*
X184777143Y-116387619D01*
X184824762Y-116340000D01*
X184920000Y-116292381D01*
X185158096Y-116292381D01*
X185300953Y-116340000D01*
X185729524Y-116768571D02*
X186062858Y-116768571D01*
X186205715Y-117292381D02*
X185729524Y-117292381D01*
X185729524Y-116292381D01*
X186205715Y-116292381D01*
X187110477Y-117292381D02*
X186634286Y-117292381D01*
X186634286Y-116292381D01*
X187205715Y-117387619D02*
X187967620Y-117387619D01*
X188777144Y-117197143D02*
X188729525Y-117244762D01*
X188586668Y-117292381D01*
X188491430Y-117292381D01*
X188348572Y-117244762D01*
X188253334Y-117149524D01*
X188205715Y-117054286D01*
X188158096Y-116863810D01*
X188158096Y-116720952D01*
X188205715Y-116530476D01*
X188253334Y-116435238D01*
X188348572Y-116340000D01*
X188491430Y-116292381D01*
X188586668Y-116292381D01*
X188729525Y-116340000D01*
X188777144Y-116387619D01*
X192405238Y-114069762D02*
X192548095Y-114117381D01*
X192786191Y-114117381D01*
X192881429Y-114069762D01*
X192929048Y-114022143D01*
X192976667Y-113926905D01*
X192976667Y-113831667D01*
X192929048Y-113736429D01*
X192881429Y-113688810D01*
X192786191Y-113641190D01*
X192595714Y-113593571D01*
X192500476Y-113545952D01*
X192452857Y-113498333D01*
X192405238Y-113403095D01*
X192405238Y-113307857D01*
X192452857Y-113212619D01*
X192500476Y-113165000D01*
X192595714Y-113117381D01*
X192833810Y-113117381D01*
X192976667Y-113165000D01*
X193929048Y-114117381D02*
X193357619Y-114117381D01*
X193643333Y-114117381D02*
X193643333Y-113117381D01*
X193548095Y-113260238D01*
X193452857Y-113355476D01*
X193357619Y-113403095D01*
X194119524Y-114212619D02*
X194881429Y-114212619D01*
X195119524Y-114117381D02*
X195119524Y-113117381D01*
X195595714Y-114117381D02*
X195595714Y-113117381D01*
X196167143Y-114117381D01*
X196167143Y-113117381D01*
X191738571Y-110259762D02*
X191881428Y-110307381D01*
X192119524Y-110307381D01*
X192214762Y-110259762D01*
X192262381Y-110212143D01*
X192310000Y-110116905D01*
X192310000Y-110021667D01*
X192262381Y-109926429D01*
X192214762Y-109878810D01*
X192119524Y-109831190D01*
X191929047Y-109783571D01*
X191833809Y-109735952D01*
X191786190Y-109688333D01*
X191738571Y-109593095D01*
X191738571Y-109497857D01*
X191786190Y-109402619D01*
X191833809Y-109355000D01*
X191929047Y-109307381D01*
X192167143Y-109307381D01*
X192310000Y-109355000D01*
X192690952Y-109402619D02*
X192738571Y-109355000D01*
X192833809Y-109307381D01*
X193071905Y-109307381D01*
X193167143Y-109355000D01*
X193214762Y-109402619D01*
X193262381Y-109497857D01*
X193262381Y-109593095D01*
X193214762Y-109735952D01*
X192643333Y-110307381D01*
X193262381Y-110307381D01*
X193452857Y-110402619D02*
X194214762Y-110402619D01*
X194643333Y-109307381D02*
X194833810Y-109307381D01*
X194929048Y-109355000D01*
X195024286Y-109450238D01*
X195071905Y-109640714D01*
X195071905Y-109974048D01*
X195024286Y-110164524D01*
X194929048Y-110259762D01*
X194833810Y-110307381D01*
X194643333Y-110307381D01*
X194548095Y-110259762D01*
X194452857Y-110164524D01*
X194405238Y-109974048D01*
X194405238Y-109640714D01*
X194452857Y-109450238D01*
X194548095Y-109355000D01*
X194643333Y-109307381D01*
X195500476Y-109307381D02*
X195500476Y-110116905D01*
X195548095Y-110212143D01*
X195595714Y-110259762D01*
X195690952Y-110307381D01*
X195881429Y-110307381D01*
X195976667Y-110259762D01*
X196024286Y-110212143D01*
X196071905Y-110116905D01*
X196071905Y-109307381D01*
X196405238Y-109307381D02*
X196976667Y-109307381D01*
X196690952Y-110307381D02*
X196690952Y-109307381D01*
X182039047Y-103909762D02*
X182181904Y-103957381D01*
X182420000Y-103957381D01*
X182515238Y-103909762D01*
X182562857Y-103862143D01*
X182610476Y-103766905D01*
X182610476Y-103671667D01*
X182562857Y-103576429D01*
X182515238Y-103528810D01*
X182420000Y-103481190D01*
X182229523Y-103433571D01*
X182134285Y-103385952D01*
X182086666Y-103338333D01*
X182039047Y-103243095D01*
X182039047Y-103147857D01*
X182086666Y-103052619D01*
X182134285Y-103005000D01*
X182229523Y-102957381D01*
X182467619Y-102957381D01*
X182610476Y-103005000D01*
X182991428Y-103052619D02*
X183039047Y-103005000D01*
X183134285Y-102957381D01*
X183372381Y-102957381D01*
X183467619Y-103005000D01*
X183515238Y-103052619D01*
X183562857Y-103147857D01*
X183562857Y-103243095D01*
X183515238Y-103385952D01*
X182943809Y-103957381D01*
X183562857Y-103957381D01*
X183753333Y-104052619D02*
X184515238Y-104052619D01*
X184705714Y-103909762D02*
X184848571Y-103957381D01*
X185086667Y-103957381D01*
X185181905Y-103909762D01*
X185229524Y-103862143D01*
X185277143Y-103766905D01*
X185277143Y-103671667D01*
X185229524Y-103576429D01*
X185181905Y-103528810D01*
X185086667Y-103481190D01*
X184896190Y-103433571D01*
X184800952Y-103385952D01*
X184753333Y-103338333D01*
X184705714Y-103243095D01*
X184705714Y-103147857D01*
X184753333Y-103052619D01*
X184800952Y-103005000D01*
X184896190Y-102957381D01*
X185134286Y-102957381D01*
X185277143Y-103005000D01*
X185705714Y-103433571D02*
X186039048Y-103433571D01*
X186181905Y-103957381D02*
X185705714Y-103957381D01*
X185705714Y-102957381D01*
X186181905Y-102957381D01*
X187086667Y-103957381D02*
X186610476Y-103957381D01*
X186610476Y-102957381D01*
X187181905Y-104052619D02*
X187943810Y-104052619D01*
X188181905Y-103957381D02*
X188181905Y-102957381D01*
X188181905Y-103433571D02*
X188753334Y-103433571D01*
X188753334Y-103957381D02*
X188753334Y-102957381D01*
X182158095Y-110132762D02*
X182300952Y-110180381D01*
X182539048Y-110180381D01*
X182634286Y-110132762D01*
X182681905Y-110085143D01*
X182729524Y-109989905D01*
X182729524Y-109894667D01*
X182681905Y-109799429D01*
X182634286Y-109751810D01*
X182539048Y-109704190D01*
X182348571Y-109656571D01*
X182253333Y-109608952D01*
X182205714Y-109561333D01*
X182158095Y-109466095D01*
X182158095Y-109370857D01*
X182205714Y-109275619D01*
X182253333Y-109228000D01*
X182348571Y-109180381D01*
X182586667Y-109180381D01*
X182729524Y-109228000D01*
X183110476Y-109275619D02*
X183158095Y-109228000D01*
X183253333Y-109180381D01*
X183491429Y-109180381D01*
X183586667Y-109228000D01*
X183634286Y-109275619D01*
X183681905Y-109370857D01*
X183681905Y-109466095D01*
X183634286Y-109608952D01*
X183062857Y-110180381D01*
X183681905Y-110180381D01*
X183872381Y-110275619D02*
X184634286Y-110275619D01*
X184824762Y-110132762D02*
X184967619Y-110180381D01*
X185205715Y-110180381D01*
X185300953Y-110132762D01*
X185348572Y-110085143D01*
X185396191Y-109989905D01*
X185396191Y-109894667D01*
X185348572Y-109799429D01*
X185300953Y-109751810D01*
X185205715Y-109704190D01*
X185015238Y-109656571D01*
X184920000Y-109608952D01*
X184872381Y-109561333D01*
X184824762Y-109466095D01*
X184824762Y-109370857D01*
X184872381Y-109275619D01*
X184920000Y-109228000D01*
X185015238Y-109180381D01*
X185253334Y-109180381D01*
X185396191Y-109228000D01*
X185824762Y-109656571D02*
X186158096Y-109656571D01*
X186300953Y-110180381D02*
X185824762Y-110180381D01*
X185824762Y-109180381D01*
X186300953Y-109180381D01*
X187205715Y-110180381D02*
X186729524Y-110180381D01*
X186729524Y-109180381D01*
X187300953Y-110275619D02*
X188062858Y-110275619D01*
X188777144Y-110180381D02*
X188300953Y-110180381D01*
X188300953Y-109180381D01*
X182062857Y-107084762D02*
X182205714Y-107132381D01*
X182443810Y-107132381D01*
X182539048Y-107084762D01*
X182586667Y-107037143D01*
X182634286Y-106941905D01*
X182634286Y-106846667D01*
X182586667Y-106751429D01*
X182539048Y-106703810D01*
X182443810Y-106656190D01*
X182253333Y-106608571D01*
X182158095Y-106560952D01*
X182110476Y-106513333D01*
X182062857Y-106418095D01*
X182062857Y-106322857D01*
X182110476Y-106227619D01*
X182158095Y-106180000D01*
X182253333Y-106132381D01*
X182491429Y-106132381D01*
X182634286Y-106180000D01*
X183015238Y-106227619D02*
X183062857Y-106180000D01*
X183158095Y-106132381D01*
X183396191Y-106132381D01*
X183491429Y-106180000D01*
X183539048Y-106227619D01*
X183586667Y-106322857D01*
X183586667Y-106418095D01*
X183539048Y-106560952D01*
X182967619Y-107132381D01*
X183586667Y-107132381D01*
X183777143Y-107227619D02*
X184539048Y-107227619D01*
X184729524Y-107084762D02*
X184872381Y-107132381D01*
X185110477Y-107132381D01*
X185205715Y-107084762D01*
X185253334Y-107037143D01*
X185300953Y-106941905D01*
X185300953Y-106846667D01*
X185253334Y-106751429D01*
X185205715Y-106703810D01*
X185110477Y-106656190D01*
X184920000Y-106608571D01*
X184824762Y-106560952D01*
X184777143Y-106513333D01*
X184729524Y-106418095D01*
X184729524Y-106322857D01*
X184777143Y-106227619D01*
X184824762Y-106180000D01*
X184920000Y-106132381D01*
X185158096Y-106132381D01*
X185300953Y-106180000D01*
X185729524Y-106608571D02*
X186062858Y-106608571D01*
X186205715Y-107132381D02*
X185729524Y-107132381D01*
X185729524Y-106132381D01*
X186205715Y-106132381D01*
X187110477Y-107132381D02*
X186634286Y-107132381D01*
X186634286Y-106132381D01*
X187205715Y-107227619D02*
X187967620Y-107227619D01*
X188777144Y-107037143D02*
X188729525Y-107084762D01*
X188586668Y-107132381D01*
X188491430Y-107132381D01*
X188348572Y-107084762D01*
X188253334Y-106989524D01*
X188205715Y-106894286D01*
X188158096Y-106703810D01*
X188158096Y-106560952D01*
X188205715Y-106370476D01*
X188253334Y-106275238D01*
X188348572Y-106180000D01*
X188491430Y-106132381D01*
X188586668Y-106132381D01*
X188729525Y-106180000D01*
X188777144Y-106227619D01*
X192405238Y-103909762D02*
X192548095Y-103957381D01*
X192786191Y-103957381D01*
X192881429Y-103909762D01*
X192929048Y-103862143D01*
X192976667Y-103766905D01*
X192976667Y-103671667D01*
X192929048Y-103576429D01*
X192881429Y-103528810D01*
X192786191Y-103481190D01*
X192595714Y-103433571D01*
X192500476Y-103385952D01*
X192452857Y-103338333D01*
X192405238Y-103243095D01*
X192405238Y-103147857D01*
X192452857Y-103052619D01*
X192500476Y-103005000D01*
X192595714Y-102957381D01*
X192833810Y-102957381D01*
X192976667Y-103005000D01*
X193357619Y-103052619D02*
X193405238Y-103005000D01*
X193500476Y-102957381D01*
X193738572Y-102957381D01*
X193833810Y-103005000D01*
X193881429Y-103052619D01*
X193929048Y-103147857D01*
X193929048Y-103243095D01*
X193881429Y-103385952D01*
X193310000Y-103957381D01*
X193929048Y-103957381D01*
X194119524Y-104052619D02*
X194881429Y-104052619D01*
X195119524Y-103957381D02*
X195119524Y-102957381D01*
X195595714Y-103957381D02*
X195595714Y-102957381D01*
X196167143Y-103957381D01*
X196167143Y-102957381D01*
D11*
X174053571Y-110079286D02*
X174053571Y-110686429D01*
X174089286Y-110757857D01*
X174125000Y-110793571D01*
X174196429Y-110829286D01*
X174339286Y-110829286D01*
X174410714Y-110793571D01*
X174446429Y-110757857D01*
X174482143Y-110686429D01*
X174482143Y-110079286D01*
X174803571Y-110150714D02*
X174839285Y-110115000D01*
X174910714Y-110079286D01*
X175089285Y-110079286D01*
X175160714Y-110115000D01*
X175196428Y-110150714D01*
X175232143Y-110222143D01*
X175232143Y-110293571D01*
X175196428Y-110400714D01*
X174767857Y-110829286D01*
X175232143Y-110829286D01*
X165181428Y-106384286D02*
X165181428Y-105634286D01*
X165360000Y-105634286D01*
X165467143Y-105670000D01*
X165538571Y-105741429D01*
X165574286Y-105812857D01*
X165610000Y-105955714D01*
X165610000Y-106062857D01*
X165574286Y-106205714D01*
X165538571Y-106277143D01*
X165467143Y-106348571D01*
X165360000Y-106384286D01*
X165181428Y-106384286D01*
X166324286Y-106384286D02*
X165895714Y-106384286D01*
X166110000Y-106384286D02*
X166110000Y-105634286D01*
X166038571Y-105741429D01*
X165967143Y-105812857D01*
X165895714Y-105848571D01*
X178498571Y-109349286D02*
X178498571Y-109956429D01*
X178534286Y-110027857D01*
X178570000Y-110063571D01*
X178641429Y-110099286D01*
X178784286Y-110099286D01*
X178855714Y-110063571D01*
X178891429Y-110027857D01*
X178927143Y-109956429D01*
X178927143Y-109349286D01*
X179677143Y-110099286D02*
X179248571Y-110099286D01*
X179462857Y-110099286D02*
X179462857Y-109349286D01*
X179391428Y-109456429D01*
X179320000Y-109527857D01*
X179248571Y-109563571D01*
D12*
X161210667Y-116800381D02*
X161210667Y-117514667D01*
X161163047Y-117657524D01*
X161067809Y-117752762D01*
X160924952Y-117800381D01*
X160829714Y-117800381D01*
X162210667Y-117800381D02*
X161639238Y-117800381D01*
X161924952Y-117800381D02*
X161924952Y-116800381D01*
X161829714Y-116943238D01*
X161734476Y-117038476D01*
X161639238Y-117086095D01*
M02*
