G04 #@! TF.FileFunction,Copper,L1,Top,Signal*
%FSLAX46Y46*%
G04 Gerber Fmt 4.6, Leading zero omitted, Abs format (unit mm)*
G04 Created by KiCad (PCBNEW 4.0.5) date 02/12/17 18:29:55*
%MOMM*%
%LPD*%
G01*
G04 APERTURE LIST*
%ADD10C,0.100000*%
%ADD11C,0.150000*%
%ADD12R,0.900000X0.500000*%
%ADD13R,0.500000X0.900000*%
%ADD14R,1.900000X1.900000*%
%ADD15R,1.900000X1.800000*%
%ADD16R,1.600000X2.100000*%
%ADD17R,2.000000X0.400000*%
%ADD18C,1.750000*%
%ADD19O,0.690000X0.280000*%
%ADD20R,0.690000X0.280000*%
%ADD21R,1.600000X2.300000*%
%ADD22O,1.500000X0.600000*%
%ADD23R,1.500000X0.600000*%
%ADD24C,0.250000*%
%ADD25C,0.500000*%
%ADD26C,0.254000*%
G04 APERTURE END LIST*
D10*
D11*
X160051667Y-119800714D02*
X160051667Y-120610238D01*
X160004048Y-120705476D01*
X159956429Y-120753095D01*
X159861190Y-120800714D01*
X159718333Y-120800714D01*
X159623095Y-120753095D01*
X160051667Y-120419762D02*
X159956429Y-120467381D01*
X159765952Y-120467381D01*
X159670714Y-120419762D01*
X159623095Y-120372143D01*
X159575476Y-120276905D01*
X159575476Y-119991190D01*
X159623095Y-119895952D01*
X159670714Y-119848333D01*
X159765952Y-119800714D01*
X159956429Y-119800714D01*
X160051667Y-119848333D01*
X160527857Y-120467381D02*
X160527857Y-119800714D01*
X160527857Y-119467381D02*
X160480238Y-119515000D01*
X160527857Y-119562619D01*
X160575476Y-119515000D01*
X160527857Y-119467381D01*
X160527857Y-119562619D01*
X160861190Y-119800714D02*
X161242142Y-119800714D01*
X161004047Y-119467381D02*
X161004047Y-120324524D01*
X161051666Y-120419762D01*
X161146904Y-120467381D01*
X161242142Y-120467381D01*
X161575476Y-120467381D02*
X161575476Y-119467381D01*
X162004048Y-120467381D02*
X162004048Y-119943571D01*
X161956429Y-119848333D01*
X161861191Y-119800714D01*
X161718333Y-119800714D01*
X161623095Y-119848333D01*
X161575476Y-119895952D01*
X162908810Y-119800714D02*
X162908810Y-120467381D01*
X162480238Y-119800714D02*
X162480238Y-120324524D01*
X162527857Y-120419762D01*
X162623095Y-120467381D01*
X162765953Y-120467381D01*
X162861191Y-120419762D01*
X162908810Y-120372143D01*
X163385000Y-120467381D02*
X163385000Y-119467381D01*
X163385000Y-119848333D02*
X163480238Y-119800714D01*
X163670715Y-119800714D01*
X163765953Y-119848333D01*
X163813572Y-119895952D01*
X163861191Y-119991190D01*
X163861191Y-120276905D01*
X163813572Y-120372143D01*
X163765953Y-120419762D01*
X163670715Y-120467381D01*
X163480238Y-120467381D01*
X163385000Y-120419762D01*
X164289762Y-120372143D02*
X164337381Y-120419762D01*
X164289762Y-120467381D01*
X164242143Y-120419762D01*
X164289762Y-120372143D01*
X164289762Y-120467381D01*
X165194524Y-120419762D02*
X165099286Y-120467381D01*
X164908809Y-120467381D01*
X164813571Y-120419762D01*
X164765952Y-120372143D01*
X164718333Y-120276905D01*
X164718333Y-119991190D01*
X164765952Y-119895952D01*
X164813571Y-119848333D01*
X164908809Y-119800714D01*
X165099286Y-119800714D01*
X165194524Y-119848333D01*
X165765952Y-120467381D02*
X165670714Y-120419762D01*
X165623095Y-120372143D01*
X165575476Y-120276905D01*
X165575476Y-119991190D01*
X165623095Y-119895952D01*
X165670714Y-119848333D01*
X165765952Y-119800714D01*
X165908810Y-119800714D01*
X166004048Y-119848333D01*
X166051667Y-119895952D01*
X166099286Y-119991190D01*
X166099286Y-120276905D01*
X166051667Y-120372143D01*
X166004048Y-120419762D01*
X165908810Y-120467381D01*
X165765952Y-120467381D01*
X166527857Y-120467381D02*
X166527857Y-119800714D01*
X166527857Y-119895952D02*
X166575476Y-119848333D01*
X166670714Y-119800714D01*
X166813572Y-119800714D01*
X166908810Y-119848333D01*
X166956429Y-119943571D01*
X166956429Y-120467381D01*
X166956429Y-119943571D02*
X167004048Y-119848333D01*
X167099286Y-119800714D01*
X167242143Y-119800714D01*
X167337381Y-119848333D01*
X167385000Y-119943571D01*
X167385000Y-120467381D01*
X168575476Y-119419762D02*
X167718333Y-120705476D01*
X168908809Y-119800714D02*
X168908809Y-120467381D01*
X168908809Y-119895952D02*
X168956428Y-119848333D01*
X169051666Y-119800714D01*
X169194524Y-119800714D01*
X169289762Y-119848333D01*
X169337381Y-119943571D01*
X169337381Y-120467381D01*
X169956428Y-120467381D02*
X169861190Y-120419762D01*
X169813571Y-120372143D01*
X169765952Y-120276905D01*
X169765952Y-119991190D01*
X169813571Y-119895952D01*
X169861190Y-119848333D01*
X169956428Y-119800714D01*
X170099286Y-119800714D01*
X170194524Y-119848333D01*
X170242143Y-119895952D01*
X170289762Y-119991190D01*
X170289762Y-120276905D01*
X170242143Y-120372143D01*
X170194524Y-120419762D01*
X170099286Y-120467381D01*
X169956428Y-120467381D01*
X171146905Y-120467381D02*
X171146905Y-119943571D01*
X171099286Y-119848333D01*
X171004048Y-119800714D01*
X170813571Y-119800714D01*
X170718333Y-119848333D01*
X171146905Y-120419762D02*
X171051667Y-120467381D01*
X170813571Y-120467381D01*
X170718333Y-120419762D01*
X170670714Y-120324524D01*
X170670714Y-120229286D01*
X170718333Y-120134048D01*
X170813571Y-120086429D01*
X171051667Y-120086429D01*
X171146905Y-120038810D01*
X171623095Y-120467381D02*
X171623095Y-119467381D01*
X172051667Y-120467381D02*
X172051667Y-119943571D01*
X172004048Y-119848333D01*
X171908810Y-119800714D01*
X171765952Y-119800714D01*
X171670714Y-119848333D01*
X171623095Y-119895952D01*
X172527857Y-119800714D02*
X172527857Y-120800714D01*
X172527857Y-119848333D02*
X172623095Y-119800714D01*
X172813572Y-119800714D01*
X172908810Y-119848333D01*
X172956429Y-119895952D01*
X173004048Y-119991190D01*
X173004048Y-120276905D01*
X172956429Y-120372143D01*
X172908810Y-120419762D01*
X172813572Y-120467381D01*
X172623095Y-120467381D01*
X172527857Y-120419762D01*
X174146905Y-119419762D02*
X173289762Y-120705476D01*
X174480238Y-119800714D02*
X174480238Y-120800714D01*
X174480238Y-119848333D02*
X174575476Y-119800714D01*
X174765953Y-119800714D01*
X174861191Y-119848333D01*
X174908810Y-119895952D01*
X174956429Y-119991190D01*
X174956429Y-120276905D01*
X174908810Y-120372143D01*
X174861191Y-120419762D01*
X174765953Y-120467381D01*
X174575476Y-120467381D01*
X174480238Y-120419762D01*
X175337381Y-120419762D02*
X175432619Y-120467381D01*
X175623095Y-120467381D01*
X175718334Y-120419762D01*
X175765953Y-120324524D01*
X175765953Y-120276905D01*
X175718334Y-120181667D01*
X175623095Y-120134048D01*
X175480238Y-120134048D01*
X175385000Y-120086429D01*
X175337381Y-119991190D01*
X175337381Y-119943571D01*
X175385000Y-119848333D01*
X175480238Y-119800714D01*
X175623095Y-119800714D01*
X175718334Y-119848333D01*
X176575477Y-120419762D02*
X176480239Y-120467381D01*
X176289762Y-120467381D01*
X176194524Y-120419762D01*
X176146905Y-120324524D01*
X176146905Y-119943571D01*
X176194524Y-119848333D01*
X176289762Y-119800714D01*
X176480239Y-119800714D01*
X176575477Y-119848333D01*
X176623096Y-119943571D01*
X176623096Y-120038810D01*
X176146905Y-120134048D01*
X177051667Y-119800714D02*
X177051667Y-120467381D01*
X177051667Y-119895952D02*
X177099286Y-119848333D01*
X177194524Y-119800714D01*
X177337382Y-119800714D01*
X177432620Y-119848333D01*
X177480239Y-119943571D01*
X177480239Y-120467381D01*
X177908810Y-120419762D02*
X178004048Y-120467381D01*
X178194524Y-120467381D01*
X178289763Y-120419762D01*
X178337382Y-120324524D01*
X178337382Y-120276905D01*
X178289763Y-120181667D01*
X178194524Y-120134048D01*
X178051667Y-120134048D01*
X177956429Y-120086429D01*
X177908810Y-119991190D01*
X177908810Y-119943571D01*
X177956429Y-119848333D01*
X178051667Y-119800714D01*
X178194524Y-119800714D01*
X178289763Y-119848333D01*
X179146906Y-120419762D02*
X179051668Y-120467381D01*
X178861191Y-120467381D01*
X178765953Y-120419762D01*
X178718334Y-120324524D01*
X178718334Y-119943571D01*
X178765953Y-119848333D01*
X178861191Y-119800714D01*
X179051668Y-119800714D01*
X179146906Y-119848333D01*
X179194525Y-119943571D01*
X179194525Y-120038810D01*
X178718334Y-120134048D01*
X159623095Y-102655714D02*
X159623095Y-103655714D01*
X159623095Y-102703333D02*
X159718333Y-102655714D01*
X159908810Y-102655714D01*
X160004048Y-102703333D01*
X160051667Y-102750952D01*
X160099286Y-102846190D01*
X160099286Y-103131905D01*
X160051667Y-103227143D01*
X160004048Y-103274762D01*
X159908810Y-103322381D01*
X159718333Y-103322381D01*
X159623095Y-103274762D01*
X160480238Y-103274762D02*
X160575476Y-103322381D01*
X160765952Y-103322381D01*
X160861191Y-103274762D01*
X160908810Y-103179524D01*
X160908810Y-103131905D01*
X160861191Y-103036667D01*
X160765952Y-102989048D01*
X160623095Y-102989048D01*
X160527857Y-102941429D01*
X160480238Y-102846190D01*
X160480238Y-102798571D01*
X160527857Y-102703333D01*
X160623095Y-102655714D01*
X160765952Y-102655714D01*
X160861191Y-102703333D01*
X161718334Y-103274762D02*
X161623096Y-103322381D01*
X161432619Y-103322381D01*
X161337381Y-103274762D01*
X161289762Y-103179524D01*
X161289762Y-102798571D01*
X161337381Y-102703333D01*
X161432619Y-102655714D01*
X161623096Y-102655714D01*
X161718334Y-102703333D01*
X161765953Y-102798571D01*
X161765953Y-102893810D01*
X161289762Y-102989048D01*
X162194524Y-102655714D02*
X162194524Y-103322381D01*
X162194524Y-102750952D02*
X162242143Y-102703333D01*
X162337381Y-102655714D01*
X162480239Y-102655714D01*
X162575477Y-102703333D01*
X162623096Y-102798571D01*
X162623096Y-103322381D01*
X163051667Y-103274762D02*
X163146905Y-103322381D01*
X163337381Y-103322381D01*
X163432620Y-103274762D01*
X163480239Y-103179524D01*
X163480239Y-103131905D01*
X163432620Y-103036667D01*
X163337381Y-102989048D01*
X163194524Y-102989048D01*
X163099286Y-102941429D01*
X163051667Y-102846190D01*
X163051667Y-102798571D01*
X163099286Y-102703333D01*
X163194524Y-102655714D01*
X163337381Y-102655714D01*
X163432620Y-102703333D01*
X164289763Y-103274762D02*
X164194525Y-103322381D01*
X164004048Y-103322381D01*
X163908810Y-103274762D01*
X163861191Y-103179524D01*
X163861191Y-102798571D01*
X163908810Y-102703333D01*
X164004048Y-102655714D01*
X164194525Y-102655714D01*
X164289763Y-102703333D01*
X164337382Y-102798571D01*
X164337382Y-102893810D01*
X163861191Y-102989048D01*
X165432620Y-102655714D02*
X165670715Y-103322381D01*
X165908811Y-102655714D01*
X166813573Y-103322381D02*
X166242144Y-103322381D01*
X166527858Y-103322381D02*
X166527858Y-102322381D01*
X166432620Y-102465238D01*
X166337382Y-102560476D01*
X166242144Y-102608095D01*
X167242144Y-103227143D02*
X167289763Y-103274762D01*
X167242144Y-103322381D01*
X167194525Y-103274762D01*
X167242144Y-103227143D01*
X167242144Y-103322381D01*
X167908810Y-102322381D02*
X168004049Y-102322381D01*
X168099287Y-102370000D01*
X168146906Y-102417619D01*
X168194525Y-102512857D01*
X168242144Y-102703333D01*
X168242144Y-102941429D01*
X168194525Y-103131905D01*
X168146906Y-103227143D01*
X168099287Y-103274762D01*
X168004049Y-103322381D01*
X167908810Y-103322381D01*
X167813572Y-103274762D01*
X167765953Y-103227143D01*
X167718334Y-103131905D01*
X167670715Y-102941429D01*
X167670715Y-102703333D01*
X167718334Y-102512857D01*
X167765953Y-102417619D01*
X167813572Y-102370000D01*
X167908810Y-102322381D01*
D12*
X180340000Y-115951000D03*
X180340000Y-117475000D03*
D13*
X171831000Y-117475000D03*
X173355000Y-117475000D03*
X166751000Y-117475000D03*
X168275000Y-117475000D03*
D14*
X160020000Y-112960000D03*
X160020000Y-110560000D03*
D15*
X160020000Y-115560000D03*
X160020000Y-107960000D03*
D16*
X162570000Y-108660000D03*
X162570000Y-114860000D03*
D17*
X163020000Y-111110000D03*
X163020000Y-111760000D03*
X163020000Y-112410000D03*
X163020000Y-113060000D03*
X163020000Y-110460000D03*
D13*
X188468000Y-115316000D03*
X186944000Y-115316000D03*
X188468000Y-118364000D03*
X186944000Y-118364000D03*
X188468000Y-105156000D03*
X186944000Y-105156000D03*
X188468000Y-108204000D03*
X186944000Y-108204000D03*
D12*
X175260000Y-113411000D03*
X175260000Y-114935000D03*
D13*
X171704000Y-106045000D03*
X170180000Y-106045000D03*
D12*
X177673000Y-115951000D03*
X177673000Y-117475000D03*
X177673000Y-107569000D03*
X177673000Y-106045000D03*
D18*
X194310000Y-118110000D03*
X190500000Y-114300000D03*
X190500000Y-119380000D03*
X190500000Y-116840000D03*
X194310000Y-115570000D03*
X194310000Y-107950000D03*
X190500000Y-104140000D03*
X190500000Y-109220000D03*
X190500000Y-106680000D03*
X194310000Y-105410000D03*
D19*
X180470000Y-112760000D03*
D20*
X180470000Y-112260000D03*
X180470000Y-111760000D03*
X180470000Y-111260000D03*
X180470000Y-110760000D03*
X177670000Y-110760000D03*
X177670000Y-111260000D03*
X177670000Y-111760000D03*
X177670000Y-112260000D03*
X177670000Y-112760000D03*
D21*
X179070000Y-111760000D03*
D22*
X172880000Y-115570000D03*
D23*
X172880000Y-114300000D03*
X172880000Y-113030000D03*
X172880000Y-111760000D03*
X172880000Y-109220000D03*
X172880000Y-107950000D03*
X167480000Y-107950000D03*
X167480000Y-109220000D03*
X167480000Y-110490000D03*
X167480000Y-111760000D03*
X167480000Y-113030000D03*
X167480000Y-114300000D03*
X167480000Y-115570000D03*
X172880000Y-110490000D03*
D13*
X167386000Y-106045000D03*
X168910000Y-106045000D03*
D24*
X163020000Y-110460000D02*
X164604998Y-110460000D01*
X164604998Y-110460000D02*
X166404999Y-108659999D01*
X166404999Y-108659999D02*
X166404999Y-105740999D01*
X166404999Y-105740999D02*
X166875999Y-105269999D01*
X166875999Y-105269999D02*
X171128999Y-105269999D01*
X171128999Y-105269999D02*
X171704000Y-105845000D01*
X171704000Y-105845000D02*
X171704000Y-106045000D01*
X177670000Y-112760000D02*
X177670000Y-113481000D01*
X177670000Y-113481000D02*
X179397000Y-115208000D01*
X179397000Y-115208000D02*
X179397000Y-115951000D01*
X179397000Y-115951000D02*
X180340000Y-115951000D01*
X177873000Y-117475000D02*
X179397000Y-115951000D01*
X177873000Y-117475000D02*
X177673000Y-117475000D01*
X174425000Y-115570000D02*
X174371000Y-115570000D01*
X174371000Y-115570000D02*
X172880000Y-115570000D01*
X177673000Y-117475000D02*
X176276000Y-117475000D01*
X176276000Y-117475000D02*
X174371000Y-115570000D01*
X177673000Y-106045000D02*
X171704000Y-106045000D01*
X171831000Y-117475000D02*
X171831000Y-116169000D01*
X171831000Y-116169000D02*
X172430000Y-115570000D01*
X172430000Y-115570000D02*
X172880000Y-115570000D01*
X175260000Y-114935000D02*
X175060000Y-114935000D01*
X175060000Y-114935000D02*
X174425000Y-115570000D01*
X172430000Y-115570000D02*
X171450000Y-114590000D01*
X171450000Y-114590000D02*
X171450000Y-114094998D01*
X171450000Y-114094998D02*
X168490001Y-111134999D01*
X168490001Y-111134999D02*
X164944999Y-111134999D01*
X164944999Y-111134999D02*
X164270000Y-110460000D01*
X164270000Y-110460000D02*
X163020000Y-110460000D01*
X168910000Y-106045000D02*
X170180000Y-106045000D01*
X167480000Y-113030000D02*
X166075002Y-113030000D01*
X166075002Y-113030000D02*
X164155002Y-111110000D01*
X164155002Y-111110000D02*
X163020000Y-111110000D01*
X167480000Y-114300000D02*
X166708592Y-114300000D01*
X166708592Y-114300000D02*
X164168592Y-111760000D01*
X164168592Y-111760000D02*
X163020000Y-111760000D01*
D25*
X188468000Y-115316000D02*
X189484000Y-115316000D01*
X189484000Y-115316000D02*
X190500000Y-114300000D01*
D24*
X186944000Y-115316000D02*
X186944000Y-114616000D01*
X181065000Y-112260000D02*
X180470000Y-112260000D01*
X186944000Y-114616000D02*
X184588000Y-112260000D01*
X184588000Y-112260000D02*
X181065000Y-112260000D01*
D25*
X186944000Y-115316000D02*
X186944000Y-115116000D01*
X186944000Y-115316000D02*
X186944000Y-118364000D01*
X186944000Y-118364000D02*
X186944000Y-119314000D01*
X186944000Y-119314000D02*
X188335001Y-120705001D01*
X188335001Y-120705001D02*
X191714999Y-120705001D01*
X191714999Y-120705001D02*
X193435001Y-118984999D01*
X193435001Y-118984999D02*
X194310000Y-118110000D01*
X188468000Y-118364000D02*
X189484000Y-118364000D01*
X189484000Y-118364000D02*
X190500000Y-119380000D01*
X189484000Y-105156000D02*
X188468000Y-105156000D01*
X190500000Y-104140000D02*
X189484000Y-105156000D01*
D24*
X186944000Y-108204000D02*
X186444000Y-108204000D01*
X181065000Y-111260000D02*
X180470000Y-111260000D01*
X186444000Y-108204000D02*
X183388000Y-111260000D01*
X183388000Y-111260000D02*
X181065000Y-111260000D01*
D25*
X186944000Y-105156000D02*
X186944000Y-108204000D01*
X186944000Y-108204000D02*
X186944000Y-109154000D01*
X186944000Y-109154000D02*
X188335001Y-110545001D01*
X193435001Y-108824999D02*
X194310000Y-107950000D01*
X188335001Y-110545001D02*
X191714999Y-110545001D01*
X191714999Y-110545001D02*
X193435001Y-108824999D01*
X190500000Y-109220000D02*
X189484000Y-108204000D01*
X189484000Y-108204000D02*
X188468000Y-108204000D01*
D24*
X175881999Y-114359999D02*
X176584000Y-115062000D01*
X177075000Y-112260000D02*
X176584000Y-112751000D01*
X176584000Y-115062000D02*
X177473000Y-115951000D01*
X177670000Y-112260000D02*
X177075000Y-112260000D01*
X176584000Y-112751000D02*
X176584000Y-115062000D01*
X167480000Y-110490000D02*
X168704998Y-110490000D01*
X171889997Y-113674999D02*
X174238997Y-113674999D01*
X168704998Y-110490000D02*
X171889997Y-113674999D01*
X174238997Y-113674999D02*
X174923997Y-114359999D01*
X174923997Y-114359999D02*
X175881999Y-114359999D01*
X177473000Y-115951000D02*
X177673000Y-115951000D01*
X177673000Y-107569000D02*
X177673000Y-108069000D01*
X177673000Y-108069000D02*
X176999999Y-108742001D01*
X176999999Y-108742001D02*
X176999999Y-111684999D01*
X176999999Y-111684999D02*
X177075000Y-111760000D01*
X177075000Y-111760000D02*
X177670000Y-111760000D01*
X174753999Y-111134999D02*
X175379000Y-111760000D01*
X177670000Y-111760000D02*
X175379000Y-111760000D01*
X167480000Y-109220000D02*
X168480000Y-109220000D01*
X168480000Y-109220000D02*
X170394999Y-111134999D01*
X170394999Y-111134999D02*
X174753999Y-111134999D01*
X180470000Y-112760000D02*
X180470000Y-113653186D01*
X180470000Y-113653186D02*
X188096825Y-121280011D01*
X188096825Y-121280011D02*
X192915991Y-121280011D01*
X195510001Y-118686001D02*
X195510001Y-116770001D01*
X192915991Y-121280011D02*
X195510001Y-118686001D01*
X195510001Y-116770001D02*
X195184999Y-116444999D01*
X195184999Y-116444999D02*
X194310000Y-115570000D01*
D25*
X193040000Y-116840000D02*
X190500000Y-116840000D01*
X194310000Y-115570000D02*
X193040000Y-116840000D01*
D24*
X180470000Y-111760000D02*
X192276002Y-111760000D01*
X195510001Y-108526001D02*
X195510001Y-106610001D01*
X195510001Y-106610001D02*
X195184999Y-106284999D01*
X192276002Y-111760000D02*
X195510001Y-108526001D01*
X195184999Y-106284999D02*
X194310000Y-105410000D01*
D25*
X193040000Y-106680000D02*
X190500000Y-106680000D01*
X194310000Y-105410000D02*
X193040000Y-106680000D01*
D24*
X175260000Y-113411000D02*
X175260000Y-112911000D01*
X174109000Y-111760000D02*
X173880000Y-111760000D01*
X173880000Y-111760000D02*
X172880000Y-111760000D01*
X175260000Y-112911000D02*
X174109000Y-111760000D01*
X167386000Y-106045000D02*
X167386000Y-107856000D01*
X167386000Y-107856000D02*
X167480000Y-107950000D01*
X168275000Y-117475000D02*
X168275000Y-117275000D01*
X168275000Y-117275000D02*
X168555001Y-116994999D01*
X168555001Y-116994999D02*
X168555001Y-112385001D01*
X168555001Y-112385001D02*
X167930000Y-111760000D01*
X167930000Y-111760000D02*
X167480000Y-111760000D01*
D26*
G36*
X196131088Y-102174551D02*
X196598280Y-102486720D01*
X196910449Y-102953911D01*
X197029000Y-103549911D01*
X197029000Y-119970089D01*
X196910449Y-120566089D01*
X196598280Y-121033280D01*
X196131088Y-121345449D01*
X195535089Y-121464000D01*
X193447594Y-121464000D01*
X195867797Y-119043797D01*
X195977484Y-118879639D01*
X196016001Y-118686001D01*
X196016001Y-116770001D01*
X195977484Y-116576363D01*
X195867797Y-116412205D01*
X195480911Y-116025319D01*
X195565781Y-115820930D01*
X195566217Y-115321262D01*
X195375405Y-114859463D01*
X195022396Y-114505836D01*
X194560930Y-114314219D01*
X194061262Y-114313783D01*
X193599463Y-114504595D01*
X193245836Y-114857604D01*
X193054219Y-115319070D01*
X193053783Y-115818738D01*
X193087439Y-115900192D01*
X192778632Y-116209000D01*
X191598269Y-116209000D01*
X191565405Y-116129463D01*
X191212396Y-115775836D01*
X190750930Y-115584219D01*
X190251262Y-115583783D01*
X190008121Y-115684247D01*
X190169590Y-115522778D01*
X190249070Y-115555781D01*
X190748738Y-115556217D01*
X191210537Y-115365405D01*
X191564164Y-115012396D01*
X191755781Y-114550930D01*
X191756217Y-114051262D01*
X191565405Y-113589463D01*
X191212396Y-113235836D01*
X190750930Y-113044219D01*
X190251262Y-113043783D01*
X189789463Y-113234595D01*
X189435836Y-113587604D01*
X189244219Y-114049070D01*
X189243783Y-114548738D01*
X189277439Y-114630193D01*
X189222632Y-114685000D01*
X189054280Y-114685000D01*
X188996454Y-114595135D01*
X188869134Y-114508141D01*
X188718000Y-114477536D01*
X188218000Y-114477536D01*
X188076810Y-114504103D01*
X187947135Y-114587546D01*
X187860141Y-114714866D01*
X187829536Y-114866000D01*
X187829536Y-115766000D01*
X187856103Y-115907190D01*
X187939546Y-116036865D01*
X188066866Y-116123859D01*
X188218000Y-116154464D01*
X188718000Y-116154464D01*
X188859190Y-116127897D01*
X188988865Y-116044454D01*
X189055452Y-115947000D01*
X189484000Y-115947000D01*
X189649792Y-115914022D01*
X189435836Y-116127604D01*
X189244219Y-116589070D01*
X189243783Y-117088738D01*
X189434595Y-117550537D01*
X189649627Y-117765945D01*
X189484000Y-117733000D01*
X189054280Y-117733000D01*
X188996454Y-117643135D01*
X188869134Y-117556141D01*
X188718000Y-117525536D01*
X188218000Y-117525536D01*
X188076810Y-117552103D01*
X187947135Y-117635546D01*
X187860141Y-117762866D01*
X187829536Y-117914000D01*
X187829536Y-118814000D01*
X187856103Y-118955190D01*
X187939546Y-119084865D01*
X188066866Y-119171859D01*
X188218000Y-119202464D01*
X188718000Y-119202464D01*
X188859190Y-119175897D01*
X188988865Y-119092454D01*
X189055452Y-118995000D01*
X189222632Y-118995000D01*
X189277222Y-119049590D01*
X189244219Y-119129070D01*
X189243783Y-119628738D01*
X189427762Y-120074001D01*
X188596370Y-120074001D01*
X187575000Y-119052632D01*
X187575000Y-118850859D01*
X187582464Y-118814000D01*
X187582464Y-117914000D01*
X187575000Y-117874333D01*
X187575000Y-115802859D01*
X187582464Y-115766000D01*
X187582464Y-114866000D01*
X187555897Y-114724810D01*
X187472454Y-114595135D01*
X187441665Y-114574098D01*
X187411483Y-114422362D01*
X187301796Y-114258204D01*
X185309592Y-112266000D01*
X192276002Y-112266000D01*
X192469640Y-112227483D01*
X192633798Y-112117796D01*
X195867797Y-108883797D01*
X195977484Y-108719639D01*
X196016001Y-108526001D01*
X196016001Y-106610001D01*
X195977484Y-106416363D01*
X195867797Y-106252205D01*
X195480911Y-105865319D01*
X195565781Y-105660930D01*
X195566217Y-105161262D01*
X195375405Y-104699463D01*
X195022396Y-104345836D01*
X194560930Y-104154219D01*
X194061262Y-104153783D01*
X193599463Y-104344595D01*
X193245836Y-104697604D01*
X193054219Y-105159070D01*
X193053783Y-105658738D01*
X193087439Y-105740192D01*
X192778632Y-106049000D01*
X191598269Y-106049000D01*
X191565405Y-105969463D01*
X191212396Y-105615836D01*
X190750930Y-105424219D01*
X190251262Y-105423783D01*
X190008121Y-105524247D01*
X190169590Y-105362778D01*
X190249070Y-105395781D01*
X190748738Y-105396217D01*
X191210537Y-105205405D01*
X191564164Y-104852396D01*
X191755781Y-104390930D01*
X191756217Y-103891262D01*
X191565405Y-103429463D01*
X191212396Y-103075836D01*
X190750930Y-102884219D01*
X190251262Y-102883783D01*
X189789463Y-103074595D01*
X189435836Y-103427604D01*
X189244219Y-103889070D01*
X189243783Y-104388738D01*
X189277439Y-104470193D01*
X189222632Y-104525000D01*
X189054280Y-104525000D01*
X188996454Y-104435135D01*
X188869134Y-104348141D01*
X188718000Y-104317536D01*
X188218000Y-104317536D01*
X188076810Y-104344103D01*
X187947135Y-104427546D01*
X187860141Y-104554866D01*
X187829536Y-104706000D01*
X187829536Y-105606000D01*
X187856103Y-105747190D01*
X187939546Y-105876865D01*
X188066866Y-105963859D01*
X188218000Y-105994464D01*
X188718000Y-105994464D01*
X188859190Y-105967897D01*
X188988865Y-105884454D01*
X189055452Y-105787000D01*
X189484000Y-105787000D01*
X189649792Y-105754022D01*
X189435836Y-105967604D01*
X189244219Y-106429070D01*
X189243783Y-106928738D01*
X189434595Y-107390537D01*
X189649627Y-107605945D01*
X189484000Y-107573000D01*
X189054280Y-107573000D01*
X188996454Y-107483135D01*
X188869134Y-107396141D01*
X188718000Y-107365536D01*
X188218000Y-107365536D01*
X188076810Y-107392103D01*
X187947135Y-107475546D01*
X187860141Y-107602866D01*
X187829536Y-107754000D01*
X187829536Y-108654000D01*
X187856103Y-108795190D01*
X187939546Y-108924865D01*
X188066866Y-109011859D01*
X188218000Y-109042464D01*
X188718000Y-109042464D01*
X188859190Y-109015897D01*
X188988865Y-108932454D01*
X189055452Y-108835000D01*
X189222632Y-108835000D01*
X189277222Y-108889590D01*
X189244219Y-108969070D01*
X189243783Y-109468738D01*
X189427762Y-109914001D01*
X188596370Y-109914001D01*
X187575000Y-108892632D01*
X187575000Y-108690859D01*
X187582464Y-108654000D01*
X187582464Y-107754000D01*
X187575000Y-107714333D01*
X187575000Y-105642859D01*
X187582464Y-105606000D01*
X187582464Y-104706000D01*
X187555897Y-104564810D01*
X187472454Y-104435135D01*
X187345134Y-104348141D01*
X187194000Y-104317536D01*
X186694000Y-104317536D01*
X186552810Y-104344103D01*
X186423135Y-104427546D01*
X186336141Y-104554866D01*
X186305536Y-104706000D01*
X186305536Y-105606000D01*
X186313000Y-105645667D01*
X186313000Y-107717141D01*
X186311541Y-107724348D01*
X186250362Y-107736517D01*
X186126918Y-107819000D01*
X186086204Y-107846204D01*
X183178408Y-110754000D01*
X181450000Y-110754000D01*
X181450000Y-110632998D01*
X181348252Y-110632998D01*
X181450000Y-110531250D01*
X181450000Y-110493690D01*
X181353327Y-110260301D01*
X181174698Y-110081673D01*
X180941309Y-109985000D01*
X180755750Y-109985000D01*
X180597000Y-110143750D01*
X180597000Y-110690000D01*
X180617000Y-110690000D01*
X180617000Y-110731536D01*
X180505000Y-110731536D01*
X180505000Y-110483690D01*
X180408327Y-110250301D01*
X180343000Y-110184974D01*
X180343000Y-110143750D01*
X180184250Y-109985000D01*
X180020451Y-109985000D01*
X179996309Y-109975000D01*
X179355750Y-109975000D01*
X179197000Y-110133750D01*
X179197000Y-111633000D01*
X179217000Y-111633000D01*
X179217000Y-111887000D01*
X179197000Y-111887000D01*
X179197000Y-113386250D01*
X179355750Y-113545000D01*
X179964000Y-113545000D01*
X179964000Y-113653186D01*
X180002517Y-113846824D01*
X180112204Y-114010982D01*
X187565222Y-121464000D01*
X160064911Y-121464000D01*
X159468911Y-121345449D01*
X159357491Y-121271000D01*
X179766001Y-121271000D01*
X179766001Y-118859000D01*
X159004000Y-118859000D01*
X159004000Y-121034804D01*
X159001720Y-121033280D01*
X158689551Y-120566088D01*
X158571000Y-119970089D01*
X158571000Y-117760750D01*
X165866000Y-117760750D01*
X165866000Y-118051310D01*
X165962673Y-118284699D01*
X166141302Y-118463327D01*
X166374691Y-118560000D01*
X166467250Y-118560000D01*
X166626000Y-118401250D01*
X166626000Y-117602000D01*
X166876000Y-117602000D01*
X166876000Y-118401250D01*
X167034750Y-118560000D01*
X167127309Y-118560000D01*
X167360698Y-118463327D01*
X167539327Y-118284699D01*
X167636000Y-118051310D01*
X167636000Y-117760750D01*
X167477250Y-117602000D01*
X166876000Y-117602000D01*
X166626000Y-117602000D01*
X166024750Y-117602000D01*
X165866000Y-117760750D01*
X158571000Y-117760750D01*
X158571000Y-116898690D01*
X165866000Y-116898690D01*
X165866000Y-117189250D01*
X166024750Y-117348000D01*
X166626000Y-117348000D01*
X166626000Y-117328000D01*
X166876000Y-117328000D01*
X166876000Y-117348000D01*
X167477250Y-117348000D01*
X167636000Y-117189250D01*
X167636000Y-116898690D01*
X167539327Y-116665301D01*
X167360698Y-116486673D01*
X167255961Y-116443289D01*
X167353000Y-116346250D01*
X167353000Y-115697000D01*
X166253750Y-115697000D01*
X166095000Y-115855750D01*
X166095000Y-115996309D01*
X166191673Y-116229698D01*
X166358628Y-116396654D01*
X166141302Y-116486673D01*
X165962673Y-116665301D01*
X165866000Y-116898690D01*
X158571000Y-116898690D01*
X158571000Y-107060000D01*
X158681536Y-107060000D01*
X158681536Y-108860000D01*
X158708103Y-109001190D01*
X158791546Y-109130865D01*
X158918866Y-109217859D01*
X159001072Y-109234506D01*
X158928810Y-109248103D01*
X158799135Y-109331546D01*
X158712141Y-109458866D01*
X158681536Y-109610000D01*
X158681536Y-111510000D01*
X158708103Y-111651190D01*
X158778883Y-111761186D01*
X158712141Y-111858866D01*
X158681536Y-112010000D01*
X158681536Y-113910000D01*
X158708103Y-114051190D01*
X158791546Y-114180865D01*
X158918866Y-114267859D01*
X159001072Y-114284506D01*
X158928810Y-114298103D01*
X158799135Y-114381546D01*
X158712141Y-114508866D01*
X158681536Y-114660000D01*
X158681536Y-116460000D01*
X158708103Y-116601190D01*
X158791546Y-116730865D01*
X158918866Y-116817859D01*
X159070000Y-116848464D01*
X160970000Y-116848464D01*
X161111190Y-116821897D01*
X161240865Y-116738454D01*
X161327859Y-116611134D01*
X161358464Y-116460000D01*
X161358464Y-114660000D01*
X161331897Y-114518810D01*
X161248454Y-114389135D01*
X161121134Y-114302141D01*
X161038928Y-114285494D01*
X161111190Y-114271897D01*
X161240865Y-114188454D01*
X161327859Y-114061134D01*
X161358464Y-113910000D01*
X161358464Y-113810000D01*
X161381536Y-113810000D01*
X161381536Y-115910000D01*
X161408103Y-116051190D01*
X161491546Y-116180865D01*
X161618866Y-116267859D01*
X161770000Y-116298464D01*
X163370000Y-116298464D01*
X163511190Y-116271897D01*
X163640865Y-116188454D01*
X163727859Y-116061134D01*
X163758464Y-115910000D01*
X163758464Y-113895000D01*
X164146310Y-113895000D01*
X164379699Y-113798327D01*
X164558327Y-113619698D01*
X164655000Y-113386309D01*
X164655000Y-113318750D01*
X164496250Y-113160000D01*
X163147000Y-113160000D01*
X163147000Y-113207000D01*
X162893000Y-113207000D01*
X162893000Y-113160000D01*
X161543750Y-113160000D01*
X161385000Y-113318750D01*
X161385000Y-113386309D01*
X161465531Y-113580727D01*
X161412141Y-113658866D01*
X161381536Y-113810000D01*
X161358464Y-113810000D01*
X161358464Y-112010000D01*
X161331897Y-111868810D01*
X161261117Y-111758814D01*
X161327859Y-111661134D01*
X161358464Y-111510000D01*
X161358464Y-109610000D01*
X161331897Y-109468810D01*
X161248454Y-109339135D01*
X161121134Y-109252141D01*
X161038928Y-109235494D01*
X161111190Y-109221897D01*
X161240865Y-109138454D01*
X161327859Y-109011134D01*
X161358464Y-108860000D01*
X161358464Y-107610000D01*
X161381536Y-107610000D01*
X161381536Y-109710000D01*
X161408103Y-109851190D01*
X161491546Y-109980865D01*
X161618866Y-110067859D01*
X161681494Y-110080541D01*
X161662141Y-110108866D01*
X161631536Y-110260000D01*
X161631536Y-110660000D01*
X161655920Y-110789588D01*
X161631536Y-110910000D01*
X161631536Y-111310000D01*
X161655920Y-111439588D01*
X161631536Y-111560000D01*
X161631536Y-111960000D01*
X161655920Y-112089588D01*
X161631536Y-112210000D01*
X161631536Y-112350438D01*
X161481673Y-112500302D01*
X161385000Y-112733691D01*
X161385000Y-112801250D01*
X161543750Y-112960000D01*
X161857364Y-112960000D01*
X161868866Y-112967859D01*
X162020000Y-112998464D01*
X164020000Y-112998464D01*
X164161190Y-112971897D01*
X164179679Y-112960000D01*
X164496250Y-112960000D01*
X164574625Y-112881625D01*
X166350796Y-114657796D01*
X166352643Y-114659030D01*
X166366944Y-114735030D01*
X166191673Y-114910302D01*
X166095000Y-115143691D01*
X166095000Y-115284250D01*
X166253750Y-115443000D01*
X167353000Y-115443000D01*
X167353000Y-115423000D01*
X167607000Y-115423000D01*
X167607000Y-115443000D01*
X167627000Y-115443000D01*
X167627000Y-115697000D01*
X167607000Y-115697000D01*
X167607000Y-116346250D01*
X167765750Y-116505000D01*
X168049001Y-116505000D01*
X168049001Y-116636536D01*
X168025000Y-116636536D01*
X167883810Y-116663103D01*
X167754135Y-116746546D01*
X167667141Y-116873866D01*
X167636536Y-117025000D01*
X167636536Y-117925000D01*
X167663103Y-118066190D01*
X167746546Y-118195865D01*
X167873866Y-118282859D01*
X168025000Y-118313464D01*
X168525000Y-118313464D01*
X168666190Y-118286897D01*
X168795865Y-118203454D01*
X168882859Y-118076134D01*
X168913464Y-117925000D01*
X168913464Y-117351797D01*
X169022484Y-117188637D01*
X169061001Y-116994999D01*
X169061001Y-112421591D01*
X170944000Y-114304590D01*
X170944000Y-114590000D01*
X170982517Y-114783638D01*
X171092204Y-114947796D01*
X171714408Y-115570000D01*
X171473204Y-115811204D01*
X171363517Y-115975362D01*
X171325000Y-116169000D01*
X171325000Y-116736981D01*
X171310135Y-116746546D01*
X171223141Y-116873866D01*
X171192536Y-117025000D01*
X171192536Y-117925000D01*
X171219103Y-118066190D01*
X171302546Y-118195865D01*
X171429866Y-118282859D01*
X171581000Y-118313464D01*
X172081000Y-118313464D01*
X172222190Y-118286897D01*
X172351865Y-118203454D01*
X172438859Y-118076134D01*
X172469464Y-117925000D01*
X172469464Y-117760750D01*
X172470000Y-117760750D01*
X172470000Y-118051310D01*
X172566673Y-118284699D01*
X172745302Y-118463327D01*
X172978691Y-118560000D01*
X173071250Y-118560000D01*
X173230000Y-118401250D01*
X173230000Y-117602000D01*
X173480000Y-117602000D01*
X173480000Y-118401250D01*
X173638750Y-118560000D01*
X173731309Y-118560000D01*
X173964698Y-118463327D01*
X174143327Y-118284699D01*
X174240000Y-118051310D01*
X174240000Y-117760750D01*
X174081250Y-117602000D01*
X173480000Y-117602000D01*
X173230000Y-117602000D01*
X172628750Y-117602000D01*
X172470000Y-117760750D01*
X172469464Y-117760750D01*
X172469464Y-117025000D01*
X172445697Y-116898690D01*
X172470000Y-116898690D01*
X172470000Y-117189250D01*
X172628750Y-117348000D01*
X173230000Y-117348000D01*
X173230000Y-116548750D01*
X173480000Y-116548750D01*
X173480000Y-117348000D01*
X174081250Y-117348000D01*
X174240000Y-117189250D01*
X174240000Y-116898690D01*
X174143327Y-116665301D01*
X173964698Y-116486673D01*
X173731309Y-116390000D01*
X173638750Y-116390000D01*
X173480000Y-116548750D01*
X173230000Y-116548750D01*
X173071250Y-116390000D01*
X172978691Y-116390000D01*
X172745302Y-116486673D01*
X172566673Y-116665301D01*
X172470000Y-116898690D01*
X172445697Y-116898690D01*
X172442897Y-116883810D01*
X172359454Y-116754135D01*
X172337000Y-116738793D01*
X172337000Y-116378592D01*
X172464592Y-116251000D01*
X173352158Y-116251000D01*
X173612765Y-116199162D01*
X173797091Y-116076000D01*
X174161408Y-116076000D01*
X175918204Y-117832796D01*
X176082362Y-117942483D01*
X176276000Y-117981000D01*
X176934981Y-117981000D01*
X176944546Y-117995865D01*
X177071866Y-118082859D01*
X177223000Y-118113464D01*
X178123000Y-118113464D01*
X178264190Y-118086897D01*
X178393865Y-118003454D01*
X178480859Y-117876134D01*
X178504629Y-117758750D01*
X179255000Y-117758750D01*
X179255000Y-117851309D01*
X179351673Y-118084698D01*
X179530301Y-118263327D01*
X179763690Y-118360000D01*
X180054250Y-118360000D01*
X180213000Y-118201250D01*
X180213000Y-117600000D01*
X180467000Y-117600000D01*
X180467000Y-118201250D01*
X180625750Y-118360000D01*
X180916310Y-118360000D01*
X181149699Y-118263327D01*
X181328327Y-118084698D01*
X181425000Y-117851309D01*
X181425000Y-117758750D01*
X181266250Y-117600000D01*
X180467000Y-117600000D01*
X180213000Y-117600000D01*
X179413750Y-117600000D01*
X179255000Y-117758750D01*
X178504629Y-117758750D01*
X178511464Y-117725000D01*
X178511464Y-117552128D01*
X178964901Y-117098691D01*
X179255000Y-117098691D01*
X179255000Y-117191250D01*
X179413750Y-117350000D01*
X180213000Y-117350000D01*
X180213000Y-116748750D01*
X180467000Y-116748750D01*
X180467000Y-117350000D01*
X181266250Y-117350000D01*
X181425000Y-117191250D01*
X181425000Y-117098691D01*
X181328327Y-116865302D01*
X181149699Y-116686673D01*
X180916310Y-116590000D01*
X180625750Y-116590000D01*
X180467000Y-116748750D01*
X180213000Y-116748750D01*
X180054250Y-116590000D01*
X179763690Y-116590000D01*
X179530301Y-116686673D01*
X179351673Y-116865302D01*
X179255000Y-117098691D01*
X178964901Y-117098691D01*
X179603786Y-116459806D01*
X179611546Y-116471865D01*
X179738866Y-116558859D01*
X179890000Y-116589464D01*
X180790000Y-116589464D01*
X180931190Y-116562897D01*
X181060865Y-116479454D01*
X181147859Y-116352134D01*
X181178464Y-116201000D01*
X181178464Y-115701000D01*
X181151897Y-115559810D01*
X181068454Y-115430135D01*
X180941134Y-115343141D01*
X180790000Y-115312536D01*
X179903000Y-115312536D01*
X179903000Y-115208000D01*
X179864483Y-115014362D01*
X179754796Y-114850204D01*
X178449592Y-113545000D01*
X178784250Y-113545000D01*
X178943000Y-113386250D01*
X178943000Y-111887000D01*
X178923000Y-111887000D01*
X178923000Y-111633000D01*
X178943000Y-111633000D01*
X178943000Y-110133750D01*
X178784250Y-109975000D01*
X178143691Y-109975000D01*
X177910302Y-110071673D01*
X177750438Y-110231536D01*
X177505999Y-110231536D01*
X177505999Y-108951593D01*
X178030796Y-108426796D01*
X178140483Y-108262638D01*
X178152564Y-108201901D01*
X178264190Y-108180897D01*
X178393865Y-108097454D01*
X178480859Y-107970134D01*
X178511464Y-107819000D01*
X178511464Y-107319000D01*
X178484897Y-107177810D01*
X178401454Y-107048135D01*
X178274134Y-106961141D01*
X178123000Y-106930536D01*
X177223000Y-106930536D01*
X177081810Y-106957103D01*
X176952135Y-107040546D01*
X176865141Y-107167866D01*
X176834536Y-107319000D01*
X176834536Y-107819000D01*
X176861103Y-107960190D01*
X176941413Y-108084995D01*
X176642203Y-108384205D01*
X176532516Y-108548363D01*
X176493999Y-108742001D01*
X176493999Y-111254000D01*
X175588592Y-111254000D01*
X175111795Y-110777203D01*
X174947637Y-110667516D01*
X174753999Y-110628999D01*
X174018464Y-110628999D01*
X174018464Y-110190000D01*
X173991897Y-110048810D01*
X173908454Y-109919135D01*
X173813813Y-109854470D01*
X173900865Y-109798454D01*
X173987859Y-109671134D01*
X174018464Y-109520000D01*
X174018464Y-108920000D01*
X173991897Y-108778810D01*
X173908454Y-108649135D01*
X173813813Y-108584470D01*
X173900865Y-108528454D01*
X173987859Y-108401134D01*
X174018464Y-108250000D01*
X174018464Y-107650000D01*
X173991897Y-107508810D01*
X173908454Y-107379135D01*
X173781134Y-107292141D01*
X173630000Y-107261536D01*
X172130000Y-107261536D01*
X171988810Y-107288103D01*
X171859135Y-107371546D01*
X171772141Y-107498866D01*
X171741536Y-107650000D01*
X171741536Y-108250000D01*
X171768103Y-108391190D01*
X171851546Y-108520865D01*
X171946187Y-108585530D01*
X171859135Y-108641546D01*
X171772141Y-108768866D01*
X171741536Y-108920000D01*
X171741536Y-109520000D01*
X171768103Y-109661190D01*
X171851546Y-109790865D01*
X171946187Y-109855530D01*
X171859135Y-109911546D01*
X171772141Y-110038866D01*
X171741536Y-110190000D01*
X171741536Y-110628999D01*
X170604591Y-110628999D01*
X168837796Y-108862204D01*
X168673638Y-108752517D01*
X168560496Y-108730012D01*
X168508454Y-108649135D01*
X168413813Y-108584470D01*
X168500865Y-108528454D01*
X168587859Y-108401134D01*
X168618464Y-108250000D01*
X168618464Y-107650000D01*
X168591897Y-107508810D01*
X168508454Y-107379135D01*
X168381134Y-107292141D01*
X168230000Y-107261536D01*
X167892000Y-107261536D01*
X167892000Y-106783019D01*
X167906865Y-106773454D01*
X167993859Y-106646134D01*
X168024464Y-106495000D01*
X168024464Y-105775999D01*
X168271536Y-105775999D01*
X168271536Y-106495000D01*
X168298103Y-106636190D01*
X168381546Y-106765865D01*
X168508866Y-106852859D01*
X168660000Y-106883464D01*
X169160000Y-106883464D01*
X169301190Y-106856897D01*
X169430865Y-106773454D01*
X169517859Y-106646134D01*
X169537124Y-106551000D01*
X169552073Y-106551000D01*
X169568103Y-106636190D01*
X169651546Y-106765865D01*
X169778866Y-106852859D01*
X169930000Y-106883464D01*
X170430000Y-106883464D01*
X170571190Y-106856897D01*
X170700865Y-106773454D01*
X170787859Y-106646134D01*
X170818464Y-106495000D01*
X170818464Y-105775999D01*
X170919407Y-105775999D01*
X171065536Y-105922128D01*
X171065536Y-106495000D01*
X171092103Y-106636190D01*
X171175546Y-106765865D01*
X171302866Y-106852859D01*
X171454000Y-106883464D01*
X171954000Y-106883464D01*
X172095190Y-106856897D01*
X172224865Y-106773454D01*
X172311859Y-106646134D01*
X172331124Y-106551000D01*
X176934981Y-106551000D01*
X176944546Y-106565865D01*
X177071866Y-106652859D01*
X177223000Y-106683464D01*
X178123000Y-106683464D01*
X178264190Y-106656897D01*
X178393865Y-106573454D01*
X178480859Y-106446134D01*
X178511464Y-106295000D01*
X178511464Y-105795000D01*
X178484897Y-105653810D01*
X178401454Y-105524135D01*
X178274134Y-105437141D01*
X178123000Y-105406536D01*
X177223000Y-105406536D01*
X177081810Y-105433103D01*
X176952135Y-105516546D01*
X176936793Y-105539000D01*
X172331927Y-105539000D01*
X172315897Y-105453810D01*
X172232454Y-105324135D01*
X172105134Y-105237141D01*
X171954000Y-105206536D01*
X171781128Y-105206536D01*
X171486795Y-104912203D01*
X171322637Y-104802516D01*
X171128999Y-104763999D01*
X166875999Y-104763999D01*
X166682361Y-104802516D01*
X166530480Y-104904000D01*
X166518203Y-104912203D01*
X166047203Y-105383203D01*
X165937516Y-105547361D01*
X165898999Y-105740999D01*
X165898999Y-108450407D01*
X164395406Y-109954000D01*
X164247032Y-109954000D01*
X164171134Y-109902141D01*
X164020000Y-109871536D01*
X163720752Y-109871536D01*
X163727859Y-109861134D01*
X163758464Y-109710000D01*
X163758464Y-107610000D01*
X163731897Y-107468810D01*
X163648454Y-107339135D01*
X163521134Y-107252141D01*
X163370000Y-107221536D01*
X161770000Y-107221536D01*
X161628810Y-107248103D01*
X161499135Y-107331546D01*
X161412141Y-107458866D01*
X161381536Y-107610000D01*
X161358464Y-107610000D01*
X161358464Y-107060000D01*
X161331897Y-106918810D01*
X161248454Y-106789135D01*
X161121134Y-106702141D01*
X160970000Y-106671536D01*
X159070000Y-106671536D01*
X158928810Y-106698103D01*
X158799135Y-106781546D01*
X158712141Y-106908866D01*
X158681536Y-107060000D01*
X158571000Y-107060000D01*
X158571000Y-103549911D01*
X158689551Y-102953912D01*
X159001720Y-102486720D01*
X159004000Y-102485196D01*
X159004000Y-104126000D01*
X168813620Y-104126000D01*
X168813620Y-102056000D01*
X195535089Y-102056000D01*
X196131088Y-102174551D01*
X196131088Y-102174551D01*
G37*
X196131088Y-102174551D02*
X196598280Y-102486720D01*
X196910449Y-102953911D01*
X197029000Y-103549911D01*
X197029000Y-119970089D01*
X196910449Y-120566089D01*
X196598280Y-121033280D01*
X196131088Y-121345449D01*
X195535089Y-121464000D01*
X193447594Y-121464000D01*
X195867797Y-119043797D01*
X195977484Y-118879639D01*
X196016001Y-118686001D01*
X196016001Y-116770001D01*
X195977484Y-116576363D01*
X195867797Y-116412205D01*
X195480911Y-116025319D01*
X195565781Y-115820930D01*
X195566217Y-115321262D01*
X195375405Y-114859463D01*
X195022396Y-114505836D01*
X194560930Y-114314219D01*
X194061262Y-114313783D01*
X193599463Y-114504595D01*
X193245836Y-114857604D01*
X193054219Y-115319070D01*
X193053783Y-115818738D01*
X193087439Y-115900192D01*
X192778632Y-116209000D01*
X191598269Y-116209000D01*
X191565405Y-116129463D01*
X191212396Y-115775836D01*
X190750930Y-115584219D01*
X190251262Y-115583783D01*
X190008121Y-115684247D01*
X190169590Y-115522778D01*
X190249070Y-115555781D01*
X190748738Y-115556217D01*
X191210537Y-115365405D01*
X191564164Y-115012396D01*
X191755781Y-114550930D01*
X191756217Y-114051262D01*
X191565405Y-113589463D01*
X191212396Y-113235836D01*
X190750930Y-113044219D01*
X190251262Y-113043783D01*
X189789463Y-113234595D01*
X189435836Y-113587604D01*
X189244219Y-114049070D01*
X189243783Y-114548738D01*
X189277439Y-114630193D01*
X189222632Y-114685000D01*
X189054280Y-114685000D01*
X188996454Y-114595135D01*
X188869134Y-114508141D01*
X188718000Y-114477536D01*
X188218000Y-114477536D01*
X188076810Y-114504103D01*
X187947135Y-114587546D01*
X187860141Y-114714866D01*
X187829536Y-114866000D01*
X187829536Y-115766000D01*
X187856103Y-115907190D01*
X187939546Y-116036865D01*
X188066866Y-116123859D01*
X188218000Y-116154464D01*
X188718000Y-116154464D01*
X188859190Y-116127897D01*
X188988865Y-116044454D01*
X189055452Y-115947000D01*
X189484000Y-115947000D01*
X189649792Y-115914022D01*
X189435836Y-116127604D01*
X189244219Y-116589070D01*
X189243783Y-117088738D01*
X189434595Y-117550537D01*
X189649627Y-117765945D01*
X189484000Y-117733000D01*
X189054280Y-117733000D01*
X188996454Y-117643135D01*
X188869134Y-117556141D01*
X188718000Y-117525536D01*
X188218000Y-117525536D01*
X188076810Y-117552103D01*
X187947135Y-117635546D01*
X187860141Y-117762866D01*
X187829536Y-117914000D01*
X187829536Y-118814000D01*
X187856103Y-118955190D01*
X187939546Y-119084865D01*
X188066866Y-119171859D01*
X188218000Y-119202464D01*
X188718000Y-119202464D01*
X188859190Y-119175897D01*
X188988865Y-119092454D01*
X189055452Y-118995000D01*
X189222632Y-118995000D01*
X189277222Y-119049590D01*
X189244219Y-119129070D01*
X189243783Y-119628738D01*
X189427762Y-120074001D01*
X188596370Y-120074001D01*
X187575000Y-119052632D01*
X187575000Y-118850859D01*
X187582464Y-118814000D01*
X187582464Y-117914000D01*
X187575000Y-117874333D01*
X187575000Y-115802859D01*
X187582464Y-115766000D01*
X187582464Y-114866000D01*
X187555897Y-114724810D01*
X187472454Y-114595135D01*
X187441665Y-114574098D01*
X187411483Y-114422362D01*
X187301796Y-114258204D01*
X185309592Y-112266000D01*
X192276002Y-112266000D01*
X192469640Y-112227483D01*
X192633798Y-112117796D01*
X195867797Y-108883797D01*
X195977484Y-108719639D01*
X196016001Y-108526001D01*
X196016001Y-106610001D01*
X195977484Y-106416363D01*
X195867797Y-106252205D01*
X195480911Y-105865319D01*
X195565781Y-105660930D01*
X195566217Y-105161262D01*
X195375405Y-104699463D01*
X195022396Y-104345836D01*
X194560930Y-104154219D01*
X194061262Y-104153783D01*
X193599463Y-104344595D01*
X193245836Y-104697604D01*
X193054219Y-105159070D01*
X193053783Y-105658738D01*
X193087439Y-105740192D01*
X192778632Y-106049000D01*
X191598269Y-106049000D01*
X191565405Y-105969463D01*
X191212396Y-105615836D01*
X190750930Y-105424219D01*
X190251262Y-105423783D01*
X190008121Y-105524247D01*
X190169590Y-105362778D01*
X190249070Y-105395781D01*
X190748738Y-105396217D01*
X191210537Y-105205405D01*
X191564164Y-104852396D01*
X191755781Y-104390930D01*
X191756217Y-103891262D01*
X191565405Y-103429463D01*
X191212396Y-103075836D01*
X190750930Y-102884219D01*
X190251262Y-102883783D01*
X189789463Y-103074595D01*
X189435836Y-103427604D01*
X189244219Y-103889070D01*
X189243783Y-104388738D01*
X189277439Y-104470193D01*
X189222632Y-104525000D01*
X189054280Y-104525000D01*
X188996454Y-104435135D01*
X188869134Y-104348141D01*
X188718000Y-104317536D01*
X188218000Y-104317536D01*
X188076810Y-104344103D01*
X187947135Y-104427546D01*
X187860141Y-104554866D01*
X187829536Y-104706000D01*
X187829536Y-105606000D01*
X187856103Y-105747190D01*
X187939546Y-105876865D01*
X188066866Y-105963859D01*
X188218000Y-105994464D01*
X188718000Y-105994464D01*
X188859190Y-105967897D01*
X188988865Y-105884454D01*
X189055452Y-105787000D01*
X189484000Y-105787000D01*
X189649792Y-105754022D01*
X189435836Y-105967604D01*
X189244219Y-106429070D01*
X189243783Y-106928738D01*
X189434595Y-107390537D01*
X189649627Y-107605945D01*
X189484000Y-107573000D01*
X189054280Y-107573000D01*
X188996454Y-107483135D01*
X188869134Y-107396141D01*
X188718000Y-107365536D01*
X188218000Y-107365536D01*
X188076810Y-107392103D01*
X187947135Y-107475546D01*
X187860141Y-107602866D01*
X187829536Y-107754000D01*
X187829536Y-108654000D01*
X187856103Y-108795190D01*
X187939546Y-108924865D01*
X188066866Y-109011859D01*
X188218000Y-109042464D01*
X188718000Y-109042464D01*
X188859190Y-109015897D01*
X188988865Y-108932454D01*
X189055452Y-108835000D01*
X189222632Y-108835000D01*
X189277222Y-108889590D01*
X189244219Y-108969070D01*
X189243783Y-109468738D01*
X189427762Y-109914001D01*
X188596370Y-109914001D01*
X187575000Y-108892632D01*
X187575000Y-108690859D01*
X187582464Y-108654000D01*
X187582464Y-107754000D01*
X187575000Y-107714333D01*
X187575000Y-105642859D01*
X187582464Y-105606000D01*
X187582464Y-104706000D01*
X187555897Y-104564810D01*
X187472454Y-104435135D01*
X187345134Y-104348141D01*
X187194000Y-104317536D01*
X186694000Y-104317536D01*
X186552810Y-104344103D01*
X186423135Y-104427546D01*
X186336141Y-104554866D01*
X186305536Y-104706000D01*
X186305536Y-105606000D01*
X186313000Y-105645667D01*
X186313000Y-107717141D01*
X186311541Y-107724348D01*
X186250362Y-107736517D01*
X186126918Y-107819000D01*
X186086204Y-107846204D01*
X183178408Y-110754000D01*
X181450000Y-110754000D01*
X181450000Y-110632998D01*
X181348252Y-110632998D01*
X181450000Y-110531250D01*
X181450000Y-110493690D01*
X181353327Y-110260301D01*
X181174698Y-110081673D01*
X180941309Y-109985000D01*
X180755750Y-109985000D01*
X180597000Y-110143750D01*
X180597000Y-110690000D01*
X180617000Y-110690000D01*
X180617000Y-110731536D01*
X180505000Y-110731536D01*
X180505000Y-110483690D01*
X180408327Y-110250301D01*
X180343000Y-110184974D01*
X180343000Y-110143750D01*
X180184250Y-109985000D01*
X180020451Y-109985000D01*
X179996309Y-109975000D01*
X179355750Y-109975000D01*
X179197000Y-110133750D01*
X179197000Y-111633000D01*
X179217000Y-111633000D01*
X179217000Y-111887000D01*
X179197000Y-111887000D01*
X179197000Y-113386250D01*
X179355750Y-113545000D01*
X179964000Y-113545000D01*
X179964000Y-113653186D01*
X180002517Y-113846824D01*
X180112204Y-114010982D01*
X187565222Y-121464000D01*
X160064911Y-121464000D01*
X159468911Y-121345449D01*
X159357491Y-121271000D01*
X179766001Y-121271000D01*
X179766001Y-118859000D01*
X159004000Y-118859000D01*
X159004000Y-121034804D01*
X159001720Y-121033280D01*
X158689551Y-120566088D01*
X158571000Y-119970089D01*
X158571000Y-117760750D01*
X165866000Y-117760750D01*
X165866000Y-118051310D01*
X165962673Y-118284699D01*
X166141302Y-118463327D01*
X166374691Y-118560000D01*
X166467250Y-118560000D01*
X166626000Y-118401250D01*
X166626000Y-117602000D01*
X166876000Y-117602000D01*
X166876000Y-118401250D01*
X167034750Y-118560000D01*
X167127309Y-118560000D01*
X167360698Y-118463327D01*
X167539327Y-118284699D01*
X167636000Y-118051310D01*
X167636000Y-117760750D01*
X167477250Y-117602000D01*
X166876000Y-117602000D01*
X166626000Y-117602000D01*
X166024750Y-117602000D01*
X165866000Y-117760750D01*
X158571000Y-117760750D01*
X158571000Y-116898690D01*
X165866000Y-116898690D01*
X165866000Y-117189250D01*
X166024750Y-117348000D01*
X166626000Y-117348000D01*
X166626000Y-117328000D01*
X166876000Y-117328000D01*
X166876000Y-117348000D01*
X167477250Y-117348000D01*
X167636000Y-117189250D01*
X167636000Y-116898690D01*
X167539327Y-116665301D01*
X167360698Y-116486673D01*
X167255961Y-116443289D01*
X167353000Y-116346250D01*
X167353000Y-115697000D01*
X166253750Y-115697000D01*
X166095000Y-115855750D01*
X166095000Y-115996309D01*
X166191673Y-116229698D01*
X166358628Y-116396654D01*
X166141302Y-116486673D01*
X165962673Y-116665301D01*
X165866000Y-116898690D01*
X158571000Y-116898690D01*
X158571000Y-107060000D01*
X158681536Y-107060000D01*
X158681536Y-108860000D01*
X158708103Y-109001190D01*
X158791546Y-109130865D01*
X158918866Y-109217859D01*
X159001072Y-109234506D01*
X158928810Y-109248103D01*
X158799135Y-109331546D01*
X158712141Y-109458866D01*
X158681536Y-109610000D01*
X158681536Y-111510000D01*
X158708103Y-111651190D01*
X158778883Y-111761186D01*
X158712141Y-111858866D01*
X158681536Y-112010000D01*
X158681536Y-113910000D01*
X158708103Y-114051190D01*
X158791546Y-114180865D01*
X158918866Y-114267859D01*
X159001072Y-114284506D01*
X158928810Y-114298103D01*
X158799135Y-114381546D01*
X158712141Y-114508866D01*
X158681536Y-114660000D01*
X158681536Y-116460000D01*
X158708103Y-116601190D01*
X158791546Y-116730865D01*
X158918866Y-116817859D01*
X159070000Y-116848464D01*
X160970000Y-116848464D01*
X161111190Y-116821897D01*
X161240865Y-116738454D01*
X161327859Y-116611134D01*
X161358464Y-116460000D01*
X161358464Y-114660000D01*
X161331897Y-114518810D01*
X161248454Y-114389135D01*
X161121134Y-114302141D01*
X161038928Y-114285494D01*
X161111190Y-114271897D01*
X161240865Y-114188454D01*
X161327859Y-114061134D01*
X161358464Y-113910000D01*
X161358464Y-113810000D01*
X161381536Y-113810000D01*
X161381536Y-115910000D01*
X161408103Y-116051190D01*
X161491546Y-116180865D01*
X161618866Y-116267859D01*
X161770000Y-116298464D01*
X163370000Y-116298464D01*
X163511190Y-116271897D01*
X163640865Y-116188454D01*
X163727859Y-116061134D01*
X163758464Y-115910000D01*
X163758464Y-113895000D01*
X164146310Y-113895000D01*
X164379699Y-113798327D01*
X164558327Y-113619698D01*
X164655000Y-113386309D01*
X164655000Y-113318750D01*
X164496250Y-113160000D01*
X163147000Y-113160000D01*
X163147000Y-113207000D01*
X162893000Y-113207000D01*
X162893000Y-113160000D01*
X161543750Y-113160000D01*
X161385000Y-113318750D01*
X161385000Y-113386309D01*
X161465531Y-113580727D01*
X161412141Y-113658866D01*
X161381536Y-113810000D01*
X161358464Y-113810000D01*
X161358464Y-112010000D01*
X161331897Y-111868810D01*
X161261117Y-111758814D01*
X161327859Y-111661134D01*
X161358464Y-111510000D01*
X161358464Y-109610000D01*
X161331897Y-109468810D01*
X161248454Y-109339135D01*
X161121134Y-109252141D01*
X161038928Y-109235494D01*
X161111190Y-109221897D01*
X161240865Y-109138454D01*
X161327859Y-109011134D01*
X161358464Y-108860000D01*
X161358464Y-107610000D01*
X161381536Y-107610000D01*
X161381536Y-109710000D01*
X161408103Y-109851190D01*
X161491546Y-109980865D01*
X161618866Y-110067859D01*
X161681494Y-110080541D01*
X161662141Y-110108866D01*
X161631536Y-110260000D01*
X161631536Y-110660000D01*
X161655920Y-110789588D01*
X161631536Y-110910000D01*
X161631536Y-111310000D01*
X161655920Y-111439588D01*
X161631536Y-111560000D01*
X161631536Y-111960000D01*
X161655920Y-112089588D01*
X161631536Y-112210000D01*
X161631536Y-112350438D01*
X161481673Y-112500302D01*
X161385000Y-112733691D01*
X161385000Y-112801250D01*
X161543750Y-112960000D01*
X161857364Y-112960000D01*
X161868866Y-112967859D01*
X162020000Y-112998464D01*
X164020000Y-112998464D01*
X164161190Y-112971897D01*
X164179679Y-112960000D01*
X164496250Y-112960000D01*
X164574625Y-112881625D01*
X166350796Y-114657796D01*
X166352643Y-114659030D01*
X166366944Y-114735030D01*
X166191673Y-114910302D01*
X166095000Y-115143691D01*
X166095000Y-115284250D01*
X166253750Y-115443000D01*
X167353000Y-115443000D01*
X167353000Y-115423000D01*
X167607000Y-115423000D01*
X167607000Y-115443000D01*
X167627000Y-115443000D01*
X167627000Y-115697000D01*
X167607000Y-115697000D01*
X167607000Y-116346250D01*
X167765750Y-116505000D01*
X168049001Y-116505000D01*
X168049001Y-116636536D01*
X168025000Y-116636536D01*
X167883810Y-116663103D01*
X167754135Y-116746546D01*
X167667141Y-116873866D01*
X167636536Y-117025000D01*
X167636536Y-117925000D01*
X167663103Y-118066190D01*
X167746546Y-118195865D01*
X167873866Y-118282859D01*
X168025000Y-118313464D01*
X168525000Y-118313464D01*
X168666190Y-118286897D01*
X168795865Y-118203454D01*
X168882859Y-118076134D01*
X168913464Y-117925000D01*
X168913464Y-117351797D01*
X169022484Y-117188637D01*
X169061001Y-116994999D01*
X169061001Y-112421591D01*
X170944000Y-114304590D01*
X170944000Y-114590000D01*
X170982517Y-114783638D01*
X171092204Y-114947796D01*
X171714408Y-115570000D01*
X171473204Y-115811204D01*
X171363517Y-115975362D01*
X171325000Y-116169000D01*
X171325000Y-116736981D01*
X171310135Y-116746546D01*
X171223141Y-116873866D01*
X171192536Y-117025000D01*
X171192536Y-117925000D01*
X171219103Y-118066190D01*
X171302546Y-118195865D01*
X171429866Y-118282859D01*
X171581000Y-118313464D01*
X172081000Y-118313464D01*
X172222190Y-118286897D01*
X172351865Y-118203454D01*
X172438859Y-118076134D01*
X172469464Y-117925000D01*
X172469464Y-117760750D01*
X172470000Y-117760750D01*
X172470000Y-118051310D01*
X172566673Y-118284699D01*
X172745302Y-118463327D01*
X172978691Y-118560000D01*
X173071250Y-118560000D01*
X173230000Y-118401250D01*
X173230000Y-117602000D01*
X173480000Y-117602000D01*
X173480000Y-118401250D01*
X173638750Y-118560000D01*
X173731309Y-118560000D01*
X173964698Y-118463327D01*
X174143327Y-118284699D01*
X174240000Y-118051310D01*
X174240000Y-117760750D01*
X174081250Y-117602000D01*
X173480000Y-117602000D01*
X173230000Y-117602000D01*
X172628750Y-117602000D01*
X172470000Y-117760750D01*
X172469464Y-117760750D01*
X172469464Y-117025000D01*
X172445697Y-116898690D01*
X172470000Y-116898690D01*
X172470000Y-117189250D01*
X172628750Y-117348000D01*
X173230000Y-117348000D01*
X173230000Y-116548750D01*
X173480000Y-116548750D01*
X173480000Y-117348000D01*
X174081250Y-117348000D01*
X174240000Y-117189250D01*
X174240000Y-116898690D01*
X174143327Y-116665301D01*
X173964698Y-116486673D01*
X173731309Y-116390000D01*
X173638750Y-116390000D01*
X173480000Y-116548750D01*
X173230000Y-116548750D01*
X173071250Y-116390000D01*
X172978691Y-116390000D01*
X172745302Y-116486673D01*
X172566673Y-116665301D01*
X172470000Y-116898690D01*
X172445697Y-116898690D01*
X172442897Y-116883810D01*
X172359454Y-116754135D01*
X172337000Y-116738793D01*
X172337000Y-116378592D01*
X172464592Y-116251000D01*
X173352158Y-116251000D01*
X173612765Y-116199162D01*
X173797091Y-116076000D01*
X174161408Y-116076000D01*
X175918204Y-117832796D01*
X176082362Y-117942483D01*
X176276000Y-117981000D01*
X176934981Y-117981000D01*
X176944546Y-117995865D01*
X177071866Y-118082859D01*
X177223000Y-118113464D01*
X178123000Y-118113464D01*
X178264190Y-118086897D01*
X178393865Y-118003454D01*
X178480859Y-117876134D01*
X178504629Y-117758750D01*
X179255000Y-117758750D01*
X179255000Y-117851309D01*
X179351673Y-118084698D01*
X179530301Y-118263327D01*
X179763690Y-118360000D01*
X180054250Y-118360000D01*
X180213000Y-118201250D01*
X180213000Y-117600000D01*
X180467000Y-117600000D01*
X180467000Y-118201250D01*
X180625750Y-118360000D01*
X180916310Y-118360000D01*
X181149699Y-118263327D01*
X181328327Y-118084698D01*
X181425000Y-117851309D01*
X181425000Y-117758750D01*
X181266250Y-117600000D01*
X180467000Y-117600000D01*
X180213000Y-117600000D01*
X179413750Y-117600000D01*
X179255000Y-117758750D01*
X178504629Y-117758750D01*
X178511464Y-117725000D01*
X178511464Y-117552128D01*
X178964901Y-117098691D01*
X179255000Y-117098691D01*
X179255000Y-117191250D01*
X179413750Y-117350000D01*
X180213000Y-117350000D01*
X180213000Y-116748750D01*
X180467000Y-116748750D01*
X180467000Y-117350000D01*
X181266250Y-117350000D01*
X181425000Y-117191250D01*
X181425000Y-117098691D01*
X181328327Y-116865302D01*
X181149699Y-116686673D01*
X180916310Y-116590000D01*
X180625750Y-116590000D01*
X180467000Y-116748750D01*
X180213000Y-116748750D01*
X180054250Y-116590000D01*
X179763690Y-116590000D01*
X179530301Y-116686673D01*
X179351673Y-116865302D01*
X179255000Y-117098691D01*
X178964901Y-117098691D01*
X179603786Y-116459806D01*
X179611546Y-116471865D01*
X179738866Y-116558859D01*
X179890000Y-116589464D01*
X180790000Y-116589464D01*
X180931190Y-116562897D01*
X181060865Y-116479454D01*
X181147859Y-116352134D01*
X181178464Y-116201000D01*
X181178464Y-115701000D01*
X181151897Y-115559810D01*
X181068454Y-115430135D01*
X180941134Y-115343141D01*
X180790000Y-115312536D01*
X179903000Y-115312536D01*
X179903000Y-115208000D01*
X179864483Y-115014362D01*
X179754796Y-114850204D01*
X178449592Y-113545000D01*
X178784250Y-113545000D01*
X178943000Y-113386250D01*
X178943000Y-111887000D01*
X178923000Y-111887000D01*
X178923000Y-111633000D01*
X178943000Y-111633000D01*
X178943000Y-110133750D01*
X178784250Y-109975000D01*
X178143691Y-109975000D01*
X177910302Y-110071673D01*
X177750438Y-110231536D01*
X177505999Y-110231536D01*
X177505999Y-108951593D01*
X178030796Y-108426796D01*
X178140483Y-108262638D01*
X178152564Y-108201901D01*
X178264190Y-108180897D01*
X178393865Y-108097454D01*
X178480859Y-107970134D01*
X178511464Y-107819000D01*
X178511464Y-107319000D01*
X178484897Y-107177810D01*
X178401454Y-107048135D01*
X178274134Y-106961141D01*
X178123000Y-106930536D01*
X177223000Y-106930536D01*
X177081810Y-106957103D01*
X176952135Y-107040546D01*
X176865141Y-107167866D01*
X176834536Y-107319000D01*
X176834536Y-107819000D01*
X176861103Y-107960190D01*
X176941413Y-108084995D01*
X176642203Y-108384205D01*
X176532516Y-108548363D01*
X176493999Y-108742001D01*
X176493999Y-111254000D01*
X175588592Y-111254000D01*
X175111795Y-110777203D01*
X174947637Y-110667516D01*
X174753999Y-110628999D01*
X174018464Y-110628999D01*
X174018464Y-110190000D01*
X173991897Y-110048810D01*
X173908454Y-109919135D01*
X173813813Y-109854470D01*
X173900865Y-109798454D01*
X173987859Y-109671134D01*
X174018464Y-109520000D01*
X174018464Y-108920000D01*
X173991897Y-108778810D01*
X173908454Y-108649135D01*
X173813813Y-108584470D01*
X173900865Y-108528454D01*
X173987859Y-108401134D01*
X174018464Y-108250000D01*
X174018464Y-107650000D01*
X173991897Y-107508810D01*
X173908454Y-107379135D01*
X173781134Y-107292141D01*
X173630000Y-107261536D01*
X172130000Y-107261536D01*
X171988810Y-107288103D01*
X171859135Y-107371546D01*
X171772141Y-107498866D01*
X171741536Y-107650000D01*
X171741536Y-108250000D01*
X171768103Y-108391190D01*
X171851546Y-108520865D01*
X171946187Y-108585530D01*
X171859135Y-108641546D01*
X171772141Y-108768866D01*
X171741536Y-108920000D01*
X171741536Y-109520000D01*
X171768103Y-109661190D01*
X171851546Y-109790865D01*
X171946187Y-109855530D01*
X171859135Y-109911546D01*
X171772141Y-110038866D01*
X171741536Y-110190000D01*
X171741536Y-110628999D01*
X170604591Y-110628999D01*
X168837796Y-108862204D01*
X168673638Y-108752517D01*
X168560496Y-108730012D01*
X168508454Y-108649135D01*
X168413813Y-108584470D01*
X168500865Y-108528454D01*
X168587859Y-108401134D01*
X168618464Y-108250000D01*
X168618464Y-107650000D01*
X168591897Y-107508810D01*
X168508454Y-107379135D01*
X168381134Y-107292141D01*
X168230000Y-107261536D01*
X167892000Y-107261536D01*
X167892000Y-106783019D01*
X167906865Y-106773454D01*
X167993859Y-106646134D01*
X168024464Y-106495000D01*
X168024464Y-105775999D01*
X168271536Y-105775999D01*
X168271536Y-106495000D01*
X168298103Y-106636190D01*
X168381546Y-106765865D01*
X168508866Y-106852859D01*
X168660000Y-106883464D01*
X169160000Y-106883464D01*
X169301190Y-106856897D01*
X169430865Y-106773454D01*
X169517859Y-106646134D01*
X169537124Y-106551000D01*
X169552073Y-106551000D01*
X169568103Y-106636190D01*
X169651546Y-106765865D01*
X169778866Y-106852859D01*
X169930000Y-106883464D01*
X170430000Y-106883464D01*
X170571190Y-106856897D01*
X170700865Y-106773454D01*
X170787859Y-106646134D01*
X170818464Y-106495000D01*
X170818464Y-105775999D01*
X170919407Y-105775999D01*
X171065536Y-105922128D01*
X171065536Y-106495000D01*
X171092103Y-106636190D01*
X171175546Y-106765865D01*
X171302866Y-106852859D01*
X171454000Y-106883464D01*
X171954000Y-106883464D01*
X172095190Y-106856897D01*
X172224865Y-106773454D01*
X172311859Y-106646134D01*
X172331124Y-106551000D01*
X176934981Y-106551000D01*
X176944546Y-106565865D01*
X177071866Y-106652859D01*
X177223000Y-106683464D01*
X178123000Y-106683464D01*
X178264190Y-106656897D01*
X178393865Y-106573454D01*
X178480859Y-106446134D01*
X178511464Y-106295000D01*
X178511464Y-105795000D01*
X178484897Y-105653810D01*
X178401454Y-105524135D01*
X178274134Y-105437141D01*
X178123000Y-105406536D01*
X177223000Y-105406536D01*
X177081810Y-105433103D01*
X176952135Y-105516546D01*
X176936793Y-105539000D01*
X172331927Y-105539000D01*
X172315897Y-105453810D01*
X172232454Y-105324135D01*
X172105134Y-105237141D01*
X171954000Y-105206536D01*
X171781128Y-105206536D01*
X171486795Y-104912203D01*
X171322637Y-104802516D01*
X171128999Y-104763999D01*
X166875999Y-104763999D01*
X166682361Y-104802516D01*
X166530480Y-104904000D01*
X166518203Y-104912203D01*
X166047203Y-105383203D01*
X165937516Y-105547361D01*
X165898999Y-105740999D01*
X165898999Y-108450407D01*
X164395406Y-109954000D01*
X164247032Y-109954000D01*
X164171134Y-109902141D01*
X164020000Y-109871536D01*
X163720752Y-109871536D01*
X163727859Y-109861134D01*
X163758464Y-109710000D01*
X163758464Y-107610000D01*
X163731897Y-107468810D01*
X163648454Y-107339135D01*
X163521134Y-107252141D01*
X163370000Y-107221536D01*
X161770000Y-107221536D01*
X161628810Y-107248103D01*
X161499135Y-107331546D01*
X161412141Y-107458866D01*
X161381536Y-107610000D01*
X161358464Y-107610000D01*
X161358464Y-107060000D01*
X161331897Y-106918810D01*
X161248454Y-106789135D01*
X161121134Y-106702141D01*
X160970000Y-106671536D01*
X159070000Y-106671536D01*
X158928810Y-106698103D01*
X158799135Y-106781546D01*
X158712141Y-106908866D01*
X158681536Y-107060000D01*
X158571000Y-107060000D01*
X158571000Y-103549911D01*
X158689551Y-102953912D01*
X159001720Y-102486720D01*
X159004000Y-102485196D01*
X159004000Y-104126000D01*
X168813620Y-104126000D01*
X168813620Y-102056000D01*
X195535089Y-102056000D01*
X196131088Y-102174551D01*
M02*
